<svg xmlns="http://www.w3.org/2000/svg" viewBox="-1.77 -1.77 92.17 82.17">
  <path fill="#35ADA4" d="M7.531 78.691l4.743-14.388 9.862-2.491zm18.22-53.512l12.087-9.07 2.229 20.938zM0 20.994l24.306 3.17L37.17 15.15zm66.913 7.01L39.178 16.385l2.205 20.57zm3.323-9.066l.636-7.144-14.418 10.461 12.843 5.462zm18.567-.586l-16.816-6.641-.634 7.59zm-27.172-1.357l-6.441 4.612-9.27-3.71 6.419-15.03z"/>
  <path fill="#35ADA4" d="M32.389 14.403l-5.717-5.66 24.535-6.11-6.462 14.59-7.505-3.432zM5.836 0l45.086 1.54-25.284 6.185zm63.376 28.395l-21.698 7.93.018 17.382c6.742-6.59 20.81-18.35 20.81-18.35zM12.853 62.807l33.326-26.03.054 17.311z"/>
</svg>