<svg xmlns="http://www.w3.org/2000/svg" viewBox="-2.15 -2.15 111.54 82.29">
  <path fill="#B61B20" d="M0 78.074l3.902-11.53 10.702-2.156zM41.12 33.287c51.484 6.05 66.204 10.84 66.204 10.84C73.223 19.572 66.54 14.503 66.54 14.503l-19.206 1.841zM86.067 9.059L70.132 6.717 72.645.39zm-19.954 3.769l5.4-12.829s-17.36 10.119-25.448 14.837c6.751-.665 20.047-2.008 20.047-2.008zM40.358 34.951L22.01 52.183l27.235-16.329c-4.414-.55-8.887-.903-8.887-.903zM50.858 36.214l-6.486 4.159 43.735 11.376-7.718-11.486a1278.19 1278.19 0 00-29.531-4.049zm-11.961-1.943l7.033-19.306-11.936 13.716-19.069 28.526zM35.386 45.849l-8.344 14.778-22.499 4.35z"/>
</svg>