<svg width="3378" height="1924" xmlns="http://www.w3.org/2000/svg" xmlns:xlink="http://www.w3.org/1999/xlink" xml:space="preserve" overflow="hidden"><defs><clipPath id="clip0"><rect x="3956" y="796" width="3378" height="1924"/></clipPath><clipPath id="clip1"><rect x="3955" y="796" width="3378" height="1923"/></clipPath><clipPath id="clip2"><rect x="3955" y="796" width="3378" height="1923"/></clipPath><clipPath id="clip3"><rect x="3955" y="796" width="3378" height="1923"/></clipPath><clipPath id="clip4"><rect x="3955" y="796" width="3378" height="1923"/></clipPath><clipPath id="clip5"><rect x="3955" y="796" width="3378" height="1923"/></clipPath><clipPath id="clip6"><rect x="3955" y="796" width="3378" height="1923"/></clipPath><clipPath id="clip7"><rect x="3955" y="796" width="3378" height="1923"/></clipPath><clipPath id="clip8"><rect x="3955" y="796" width="3378" height="1923"/></clipPath><clipPath id="clip9"><rect x="3955" y="796" width="3378" height="1923"/></clipPath><clipPath id="clip10"><rect x="3955" y="796" width="3378" height="1923"/></clipPath><clipPath id="clip11"><rect x="3955" y="796" width="3378" height="1923"/></clipPath><clipPath id="clip12"><rect x="3769" y="796" width="4071" height="197"/></clipPath><clipPath id="clip13"><rect x="3955" y="796" width="3378" height="1923"/></clipPath><clipPath id="clip14"><rect x="3769" y="796" width="4071" height="197"/></clipPath><clipPath id="clip15"><rect x="3955" y="796" width="3378" height="1923"/></clipPath><clipPath id="clip16"><rect x="3955" y="796" width="3378" height="1923"/></clipPath><clipPath id="clip17"><rect x="3955" y="796" width="3378" height="1923"/></clipPath><clipPath id="clip18"><rect x="3955" y="796" width="3378" height="1923"/></clipPath><clipPath id="clip19"><rect x="3955" y="796" width="3378" height="1923"/></clipPath><clipPath id="clip20"><rect x="4976" y="1957" width="3810" height="273"/></clipPath><clipPath id="clip21"><rect x="3955" y="796" width="3378" height="1923"/></clipPath><clipPath id="clip22"><rect x="3955" y="796" width="3378" height="1923"/></clipPath><clipPath id="clip23"><rect x="4976" y="1957" width="3810" height="273"/></clipPath><clipPath id="clip24"><rect x="3955" y="796" width="3378" height="1923"/></clipPath><clipPath id="clip25"><rect x="3955" y="796" width="3378" height="1923"/></clipPath><clipPath id="clip26"><rect x="3955" y="796" width="3378" height="1923"/></clipPath><clipPath id="clip27"><rect x="3955" y="796" width="3378" height="1923"/></clipPath><clipPath id="clip28"><rect x="3955" y="796" width="3378" height="1923"/></clipPath><clipPath id="clip29"><rect x="3955" y="796" width="3378" height="1923"/></clipPath></defs><g clip-path="url(#clip0)" transform="translate(-3956 -796)"><rect x="3956" y="797" width="3378" height="1923" fill="#FCFCFC"/><g clip-path="url(#clip1)"><path d="M5658.06 991.385C5665.64 991.385 5673.21 991.498 5680.78 991.722L5658.06 1758.21Z" stroke="#FFFFFF" stroke-width="16.0417" stroke-linejoin="round" stroke-miterlimit="10" fill="#2C9B94" fill-rule="evenodd"/></g><g clip-path="url(#clip2)"><path d="M5680.78 991.723C5919.74 998.807 6141.73 1116.93 6281.1 1311.17L5658.06 1758.21Z" stroke="#FFFFFF" stroke-width="16.0417" stroke-linejoin="round" stroke-miterlimit="10" fill="#32ACA3" fill-rule="evenodd"/></g><g clip-path="url(#clip3)"><path d="M6281.1 1311.17C6411.18 1492.47 6455.85 1721.43 6403.43 1938.33L5658.06 1758.21Z" stroke="#FFFFFF" stroke-width="16.0417" stroke-linejoin="round" stroke-miterlimit="10" fill="#3CC7BE" fill-rule="evenodd"/></g><g clip-path="url(#clip4)"><path d="M6403.43 1938.33C6394.53 1975.17 6382.91 2011.29 6368.67 2046.41L5658.06 1758.21Z" stroke="#FFFFFF" stroke-width="16.0417" stroke-linejoin="round" stroke-miterlimit="10" fill="#6AE8DB" fill-rule="evenodd"/></g><g clip-path="url(#clip5)"><path d="M6368.67 2046.41C6209.51 2438.87 5762.33 2627.99 5369.87 2468.82 4977.41 2309.66 4788.29 1862.48 4947.45 1470.02 5028.33 1270.58 5189.3 1114.31 5391.05 1039.37L5658.06 1758.21Z" stroke="#FFFFFF" stroke-width="16.0417" stroke-linejoin="round" stroke-miterlimit="10" fill="#BBF5EE" fill-rule="evenodd"/></g><g clip-path="url(#clip6)"><path d="M5391.05 1039.37C5476.49 1007.64 5566.91 991.386 5658.06 991.386L5658.06 1758.21Z" stroke="#FFFFFF" stroke-width="16.0417" stroke-linejoin="round" stroke-miterlimit="10" fill="#CCEBEB" fill-rule="evenodd"/></g><g clip-path="url(#clip7)"><path d="M6018.5 1081.5 6164.7 976.5 6184.5 976.5" stroke="#A6A6A6" stroke-width="3.4375" stroke-linejoin="round" stroke-miterlimit="10" fill="none"/></g><g clip-path="url(#clip8)"><path d="M6410.5 1611.5 6537.71 1620.5 6558.5 1620.5" stroke="#A6A6A6" stroke-width="3.4375" stroke-linejoin="round" stroke-miterlimit="10" fill="none"/></g><g clip-path="url(#clip9)"><path d="M6388.5 1993.5 6420.71 2043.5 6440.5 2043.5" stroke="#A6A6A6" stroke-width="3.4375" stroke-linejoin="round" stroke-miterlimit="10" fill="none"/></g><g clip-path="url(#clip10)"><path d="M5522.5 1003.5 5287.67 897.5 5266.5 897.5" stroke="#A6A6A6" stroke-width="3.4375" stroke-linejoin="round" stroke-miterlimit="10" fill="none"/></g><g clip-path="url(#clip11)"><g clip-path="url(#clip12)"><text fill="#404040" font-family="Source Sans Pro,Source Sans Pro_MSFontService,sans-serif" font-weight="400" font-size="64" transform="matrix(1 0 0 1 5513.82 877)">Prêts du Förderverein </text></g></g><g clip-path="url(#clip13)"><g clip-path="url(#clip14)"><text fill="#404040" font-family="Source Sans Pro,Source Sans Pro_MSFontService,sans-serif" font-weight="400" font-size="64" transform="matrix(1 0 0 1 5655.93 958)">env. 0.1 M€</text></g></g><g clip-path="url(#clip15)"><text fill="#404040" font-family="Source Sans Pro,Source Sans Pro_MSFontService,sans-serif" font-weight="400" font-size="64" transform="matrix(1 0 0 1 6228.1 933)">Crédits directs </text></g><g clip-path="url(#clip16)"><text fill="#404040" font-family="Source Sans Pro,Source Sans Pro_MSFontService,sans-serif" font-weight="400" font-size="64" transform="matrix(1 0 0 1 6273.04 1014)">env. 3.1 M€</text></g><g clip-path="url(#clip17)"><text fill="#404040" font-family="Source Sans Pro,Source Sans Pro_MSFontService,sans-serif" font-weight="400" font-size="64" transform="matrix(1 0 0 1 6642.65 1568)">Subventions </text></g><g clip-path="url(#clip18)"><text fill="#404040" font-family="Source Sans Pro,Source Sans Pro_MSFontService,sans-serif" font-weight="400" font-size="64" transform="matrix(1 0 0 1 6662.04 1649)">env. 2.9 M€</text></g><g clip-path="url(#clip19)"><g clip-path="url(#clip20)"><text fill="#404040" font-family="Source Sans Pro,Source Sans Pro_MSFontService,sans-serif" font-weight="400" font-size="64" transform="matrix(1 0 0 1 6608.72 2036)">Contribution propes </text></g></g><g clip-path="url(#clip21)"><text fill="#404040" font-family="Source Sans Pro,Source Sans Pro_MSFontService,sans-serif" font-weight="400" font-size="64" transform="matrix(1 0 0 1 6731.01 2117)">sponsoring </text></g><g clip-path="url(#clip22)"><g clip-path="url(#clip23)"><text fill="#404040" font-family="Source Sans Pro,Source Sans Pro_MSFontService,sans-serif" font-weight="400" font-size="64" transform="matrix(1 0 0 1 6732.2 2197)">env. 0.5 M€</text></g></g><g clip-path="url(#clip24)"><text fill="#404040" font-family="Source Sans Pro,Source Sans Pro_MSFontService,sans-serif" font-weight="400" font-size="64" transform="matrix(1 0 0 1 5076.44 2116)">Financement bancaire crédit </text></g><g clip-path="url(#clip25)"><text fill="#404040" font-family="Source Sans Pro,Source Sans Pro_MSFontService,sans-serif" font-weight="400" font-size="64" transform="matrix(1 0 0 1 5145.56 2197)">promotionnel de la KfW </text></g><g clip-path="url(#clip26)"><text fill="#404040" font-family="Source Sans Pro,Source Sans Pro_MSFontService,sans-serif" font-weight="400" font-size="64" transform="matrix(1 0 0 1 5297.63 2277)">env. 13.4 M€</text></g><g clip-path="url(#clip27)"><text fill="#404040" font-family="Source Sans Pro,Source Sans Pro_MSFontService,sans-serif" font-weight="400" font-size="64" transform="matrix(1 0 0 1 4707.95 898)">Crédits de la banque </text></g><g clip-path="url(#clip28)"><text fill="#404040" font-family="Source Sans Pro,Source Sans Pro_MSFontService,sans-serif" font-weight="400" font-size="64" transform="matrix(1 0 0 1 4848.65 979)">principale </text></g><g clip-path="url(#clip29)"><text fill="#404040" font-family="Source Sans Pro,Source Sans Pro_MSFontService,sans-serif" font-weight="400" font-size="64" transform="matrix(1 0 0 1 4835.32 1059)">env. 1.2 M€</text></g></g></svg>