<svg width="3378" height="1923" xmlns="http://www.w3.org/2000/svg" xmlns:xlink="http://www.w3.org/1999/xlink" xml:space="preserve" overflow="hidden"><defs><clipPath id="clip0"><rect x="67" y="2799" width="3378" height="1923"/></clipPath><clipPath id="clip1"><rect x="66" y="2799" width="3378" height="1923"/></clipPath><clipPath id="clip2"><rect x="66" y="2799" width="3378" height="1923"/></clipPath><clipPath id="clip3"><rect x="66" y="2799" width="3378" height="1923"/></clipPath><clipPath id="clip4"><rect x="66" y="2799" width="3378" height="1923"/></clipPath><clipPath id="clip5"><rect x="66" y="2799" width="3378" height="1923"/></clipPath><clipPath id="clip6"><rect x="66" y="2799" width="3378" height="1923"/></clipPath><clipPath id="clip7"><rect x="66" y="2799" width="3378" height="1923"/></clipPath><clipPath id="clip8"><rect x="66" y="2799" width="3378" height="1923"/></clipPath><clipPath id="clip9"><rect x="66" y="2799" width="3378" height="1923"/></clipPath><clipPath id="clip10"><rect x="66" y="2799" width="3378" height="1923"/></clipPath><clipPath id="clip11"><rect x="66" y="2799" width="3378" height="1923"/></clipPath><clipPath id="clip12"><rect x="98" y="2799" width="3635" height="196"/></clipPath><clipPath id="clip13"><rect x="66" y="2799" width="3378" height="1923"/></clipPath><clipPath id="clip14"><rect x="98" y="2799" width="3635" height="196"/></clipPath><clipPath id="clip15"><rect x="66" y="2799" width="3378" height="1923"/></clipPath><clipPath id="clip16"><rect x="66" y="2799" width="3378" height="1923"/></clipPath><clipPath id="clip17"><rect x="66" y="2799" width="3378" height="1923"/></clipPath><clipPath id="clip18"><rect x="66" y="2799" width="3378" height="1923"/></clipPath><clipPath id="clip19"><rect x="66" y="2799" width="3378" height="1923"/></clipPath><clipPath id="clip20"><rect x="1438" y="3933" width="2823" height="272"/></clipPath><clipPath id="clip21"><rect x="66" y="2799" width="3378" height="1923"/></clipPath><clipPath id="clip22"><rect x="66" y="2799" width="3378" height="1923"/></clipPath><clipPath id="clip23"><rect x="1438" y="3933" width="2823" height="272"/></clipPath><clipPath id="clip24"><rect x="66" y="2799" width="3378" height="1923"/></clipPath><clipPath id="clip25"><rect x="66" y="2799" width="3378" height="1923"/></clipPath><clipPath id="clip26"><rect x="66" y="2799" width="3378" height="1923"/></clipPath><clipPath id="clip27"><rect x="66" y="2799" width="3378" height="1923"/></clipPath></defs><g clip-path="url(#clip0)" transform="translate(-67 -2799)"><g clip-path="url(#clip1)"><path d="M1769.28 2993.95C1776.85 2993.95 1784.43 2994.06 1792 2994.29L1769.28 3760.78Z" stroke="#FFFFFF" stroke-width="16.0417" stroke-linejoin="round" stroke-miterlimit="10" fill="#2C9B94" fill-rule="evenodd"/></g><g clip-path="url(#clip2)"><path d="M1792 2994.29C2030.96 3001.37 2252.94 3119.5 2392.31 3313.73L1769.28 3760.78Z" stroke="#FFFFFF" stroke-width="16.0417" stroke-linejoin="round" stroke-miterlimit="10" fill="#32ACA3" fill-rule="evenodd"/></g><g clip-path="url(#clip3)"><path d="M2392.31 3313.73C2522.4 3495.03 2567.06 3724 2514.65 3940.89L1769.28 3760.78Z" stroke="#FFFFFF" stroke-width="16.0417" stroke-linejoin="round" stroke-miterlimit="10" fill="#3CC7BE" fill-rule="evenodd"/></g><g clip-path="url(#clip4)"><path d="M2514.65 3940.89C2505.75 3977.73 2494.13 4013.85 2479.89 4048.97L1769.28 3760.78Z" stroke="#FFFFFF" stroke-width="16.0417" stroke-linejoin="round" stroke-miterlimit="10" fill="#6AE8DB" fill-rule="evenodd"/></g><g clip-path="url(#clip5)"><path d="M2479.89 4048.97C2320.72 4441.43 1873.54 4630.55 1481.08 4471.39 1088.62 4312.22 899.502 3865.04 1058.67 3472.58 1139.55 3273.14 1300.52 3116.88 1502.27 3041.94L1769.28 3760.78Z" stroke="#FFFFFF" stroke-width="16.0417" stroke-linejoin="round" stroke-miterlimit="10" fill="#BBF5EE" fill-rule="evenodd"/></g><g clip-path="url(#clip6)"><path d="M1502.27 3041.94C1587.71 3010.2 1678.13 2993.95 1769.28 2993.95L1769.28 3760.78Z" stroke="#FFFFFF" stroke-width="16.0417" stroke-linejoin="round" stroke-miterlimit="10" fill="#CCEBEB" fill-rule="evenodd"/></g><g clip-path="url(#clip7)"><path d="M2129.5 3083.5 2259.57 3119.5 2279.5 3119.5" stroke="#A6A6A6" stroke-width="3.4375" stroke-linejoin="round" stroke-miterlimit="10" fill="none"/></g><g clip-path="url(#clip8)"><path d="M2521.5 3613.5 2594.59 3598.5 2615.5 3598.5" stroke="#A6A6A6" stroke-width="3.4375" stroke-linejoin="round" stroke-miterlimit="10" fill="none"/></g><g clip-path="url(#clip9)"><path d="M2499.5 3995.5 2554.58 4018.5 2575.5 4018.5" stroke="#A6A6A6" stroke-width="3.4375" stroke-linejoin="round" stroke-miterlimit="10" fill="none"/></g><g clip-path="url(#clip10)"><path d="M1633.5 3006.5 1240.54 2911.5 1220.5 2911.5" stroke="#A6A6A6" stroke-width="3.4375" stroke-linejoin="round" stroke-miterlimit="10" fill="none"/></g><g clip-path="url(#clip11)"><g clip-path="url(#clip12)"><text fill="#404040" font-family="Source Sans Pro,Source Sans Pro_MSFontService,sans-serif" font-weight="400" font-size="64" transform="matrix(1 0 0 1 1656.18 2879)">Loans Förderverein </text></g></g><g clip-path="url(#clip13)"><g clip-path="url(#clip14)"><text fill="#404040" font-family="Source Sans Pro,Source Sans Pro_MSFontService,sans-serif" font-weight="400" font-size="64" transform="matrix(1 0 0 1 1714.16 2960)">ca. €0.1 million</text></g></g><g clip-path="url(#clip15)"><text fill="#404040" font-family="Source Sans Pro,Source Sans Pro_MSFontService,sans-serif" font-weight="400" font-size="64" transform="matrix(1 0 0 1 2356.94 2996)">Direct loans </text></g><g clip-path="url(#clip16)"><text fill="#404040" font-family="Source Sans Pro,Source Sans Pro_MSFontService,sans-serif" font-weight="400" font-size="64" transform="matrix(1 0 0 1 2315.03 3077)">ca. €3.1 million</text></g><g clip-path="url(#clip17)"><text fill="#404040" font-family="Source Sans Pro,Source Sans Pro_MSFontService,sans-serif" font-weight="400" font-size="64" transform="matrix(1 0 0 1 2778.48 3465)">Grants </text></g><g clip-path="url(#clip18)"><text fill="#404040" font-family="Source Sans Pro,Source Sans Pro_MSFontService,sans-serif" font-weight="400" font-size="64" transform="matrix(1 0 0 1 2666.12 3546)">ca. €2.9 million</text></g><g clip-path="url(#clip19)"><g clip-path="url(#clip20)"><text fill="#404040" font-family="Source Sans Pro,Source Sans Pro_MSFontService,sans-serif" font-weight="400" font-size="64" transform="matrix(1 0 0 1 2713.37 4011)">Own work </text></g></g><g clip-path="url(#clip21)"><text fill="#404040" font-family="Source Sans Pro,Source Sans Pro_MSFontService,sans-serif" font-weight="400" font-size="64" transform="matrix(1 0 0 1 2695.7 4092)">Sponsoring </text></g><g clip-path="url(#clip22)"><g clip-path="url(#clip23)"><text fill="#404040" font-family="Source Sans Pro,Source Sans Pro_MSFontService,sans-serif" font-weight="400" font-size="64" transform="matrix(1 0 0 1 2647.62 4172)">ca. €0.5 million</text></g></g><g clip-path="url(#clip24)"><text fill="#404040" font-family="Source Sans Pro,Source Sans Pro_MSFontService,sans-serif" font-weight="400" font-size="64" transform="matrix(1 0 0 1 1188.08 4068)">Bank loan supported by KfW </text></g><g clip-path="url(#clip25)"><text fill="#404040" font-family="Source Sans Pro,Source Sans Pro_MSFontService,sans-serif" font-weight="400" font-size="64" transform="matrix(1 0 0 1 1350.38 4149)">ca. €13.4 million</text></g><g clip-path="url(#clip26)"><text fill="#404040" font-family="Source Sans Pro,Source Sans Pro_MSFontService,sans-serif" font-weight="400" font-size="64" transform="matrix(1 0 0 1 735.961 2911)">House bank loans </text></g><g clip-path="url(#clip27)"><text fill="#404040" font-family="Source Sans Pro,Source Sans Pro_MSFontService,sans-serif" font-weight="400" font-size="64" transform="matrix(1 0 0 1 773.178 2992)">ca. €1.2 million</text></g></g></svg>