<svg width="109" height="109" xmlns="http://www.w3.org/2000/svg" xmlns:xlink="http://www.w3.org/1999/xlink" xml:space="preserve" overflow="hidden"><g><path d="M84.9292 24.7521C82.2042 24.7521 79.9333 22.4812 79.9333 19.7562 79.9333 17.0312 82.2042 14.7604 84.9292 14.7604 87.6542 14.7604 89.925 17.0312 89.925 19.7562L89.925 19.7562C89.925 22.4812 87.6542 24.7521 84.9292 24.7521 84.9292 24.7521 84.9292 24.7521 84.9292 24.7521ZM84.9292 7.94792C81.0687 7.94792 77.4354 9.87812 75.2781 13.0573 73.1208 16.2365 72.6667 20.324 74.0292 23.9573L79.3656 35.6521 83.9073 45.3031C84.2479 45.8708 84.9292 46.0979 85.3833 45.7573 85.6104 45.6437 85.724 45.5302 85.8375 45.3031L90.3792 35.6521 95.7156 23.9573C97.0781 20.324 96.624 16.2365 94.4667 13.0573 92.4229 9.87812 88.7896 7.94792 84.9292 7.94792Z"/><path d="M27.0229 70.1687C23.6167 70.1687 20.7781 67.3302 20.7781 63.924 20.7781 60.5177 23.6167 57.6792 27.0229 57.6792 30.4292 57.6792 33.2677 60.5177 33.2677 63.924 33.2677 63.924 33.2677 63.924 33.2677 63.924 33.2677 67.3302 30.4292 70.1687 27.0229 70.1687 27.0229 70.1687 27.0229 70.1687 27.0229 70.1687L27.0229 70.1687ZM27.0229 49.3906C22.2542 49.3906 17.7125 51.775 14.9875 55.749 12.2625 59.7229 11.6948 64.8323 13.5115 69.2604L20.0969 83.7937 25.774 95.7156C26.1146 96.3969 27.0229 96.624 27.7042 96.2833 27.9312 96.1698 28.1583 95.9427 28.2719 95.7156L33.949 83.7937 40.5344 69.2604C42.2375 64.8323 41.6698 59.7229 39.0583 55.749 36.3333 51.775 31.7917 49.3906 27.0229 49.3906L27.0229 49.3906Z"/><path d="M42.9187 96.5104 39.9667 96.5104C38.6042 96.5104 37.3552 96.5104 36.1062 96.5104L36.1062 89.6979C37.2417 89.6979 38.6042 89.6979 39.9667 89.6979L42.9187 89.6979 42.9187 96.5104Z"/><path d="M47.574 96.5104 47.574 89.6979C50.0719 89.6979 52.2292 89.6979 54.2729 89.5844L54.5 96.3969C52.3427 96.5104 50.0719 96.5104 47.574 96.5104Z"/><path d="M59.0417 96.1698 58.701 89.3573C61.0854 89.2437 63.3562 89.1302 65.2865 88.9031L65.9677 95.7156C63.924 95.9427 61.5396 96.0562 59.0417 96.1698L59.0417 96.1698Z"/><path d="M70.7365 95.1479 69.7146 88.449C71.8719 88.1083 73.9156 87.7677 75.9594 87.2L77.776 93.7854C75.3917 94.3531 73.1208 94.8073 70.7365 95.1479Z"/><path d="M82.5448 92.0823 79.8198 85.8375C81.2958 85.3833 82.5448 84.3615 83.4531 83.1125L89.4708 86.4052C87.7677 89.0167 85.3833 90.9469 82.5448 92.0823L82.5448 92.0823Z"/><path d="M83.5667 80.8417C83.3396 79.3656 82.6583 77.8896 81.6365 76.8677L86.4052 72.099C88.5625 74.2562 89.925 76.9813 90.2656 80.0469L83.5667 80.8417Z"/><path d="M78.7979 74.824C76.9813 73.9156 75.051 73.1208 73.1208 72.5531L75.051 66.0812C77.4354 66.7625 79.8198 67.6708 81.9771 68.8062L78.7979 74.824Z"/><path d="M68.8062 71.4177 66.9896 70.9635C65.4 70.5094 63.6969 70.1687 62.1073 69.7146L63.924 63.1292C65.4 63.5833 66.9896 63.924 68.5792 64.3781L70.3958 64.8323 68.8062 71.4177Z"/><path d="M57.4521 68.125C54.7271 67.1031 52.2292 65.4 50.4125 63.1292L55.976 59.2687C56.9979 60.5177 58.474 61.426 59.95 61.8802L57.4521 68.125Z"/><path d="M55.5219 56.9979 48.7094 56.5437C48.9365 53.251 50.7531 50.299 53.3646 48.3687L57.5656 53.7052C55.5219 55.4083 55.5219 56.6573 55.5219 56.9979L55.5219 56.9979Z"/><path d="M60.7448 52.0021 58.0198 45.7573C60.2906 44.7354 62.675 43.9406 65.0594 43.3729L66.649 49.9583C64.6052 50.526 62.675 51.2073 60.7448 52.0021L60.7448 52.0021Z"/><path d="M70.85 49.1635 69.7146 42.4646C72.6667 42.0104 75.1646 41.6698 76.7542 41.5562L77.3219 48.3687C76.1865 48.4823 73.6885 48.7094 70.85 49.1635L70.85 49.1635Z"/></g></svg>