<?xml version="1.0" encoding="UTF-8" standalone="no"?>
<!-- Created with Inkscape (http://www.inkscape.org/) -->

<svg
   xmlns:dc="http://purl.org/dc/elements/1.1/"
   xmlns:cc="http://creativecommons.org/ns#"
   xmlns:rdf="http://www.w3.org/1999/02/22-rdf-syntax-ns#"
   xmlns:svg="http://www.w3.org/2000/svg"
   xmlns="http://www.w3.org/2000/svg"
   xmlns:sodipodi="http://sodipodi.sourceforge.net/DTD/sodipodi-0.dtd"
   xmlns:inkscape="http://www.inkscape.org/namespaces/inkscape"
   width="210mm"
   height="80mm"
   viewBox="0 0 744.09449 283.46457"
   id="svg5516"
   version="1.1"
   inkscape:version="0.91 r13725"
   sodipodi:docname="iba_logo.svg">
  <defs
     id="defs5518" />
  <sodipodi:namedview
     id="base"
     pagecolor="#ffffff"
     bordercolor="#666666"
     borderopacity="1.0"
     inkscape:pageopacity="0.0"
     inkscape:pageshadow="2"
     inkscape:zoom="0.7"
     inkscape:cx="151.17551"
     inkscape:cy="377.3824"
     inkscape:document-units="px"
     inkscape:current-layer="layer1"
     showgrid="false"
     inkscape:window-width="1600"
     inkscape:window-height="835"
     inkscape:window-x="0"
     inkscape:window-y="0"
     inkscape:window-maximized="1" />
  <metadata
     id="metadata5521">
    <rdf:RDF>
      <cc:Work
         rdf:about="">
        <dc:format>image/svg+xml</dc:format>
        <dc:type
           rdf:resource="http://purl.org/dc/dcmitype/StillImage" />
        <dc:title></dc:title>
      </cc:Work>
    </rdf:RDF>
  </metadata>
  <g
     inkscape:label="Layer 1"
     inkscape:groupmode="layer"
     id="layer1"
     transform="translate(0,-768.89764)">
    <g
       transform="matrix(1.25,0,0,1.25,-1206.8204,481.8423)"
       id="g4730">
      <path
         d="m 1258.242,242.645 5.875,0 0,28.598 -5.875,0 0,-28.598 z"
         style="fill:#231f20;fill-opacity:1;fill-rule:nonzero;stroke:none"
         id="path4732"
         inkscape:connector-curvature="0" />
      <path
         d="m 1275.957,251.387 0,2.445 c 1.457,-2.273 2.918,-3.133 5.402,-3.133 1.883,0 3.688,0.688 4.887,1.848 1.285,1.285 1.758,2.871 1.758,6.125 l 0,12.562 -5.445,0 0,-12.3 c 0,-1.114 -0.129,-1.758 -0.469,-2.317 -0.516,-0.812 -1.547,-1.328 -2.617,-1.328 -2.102,0 -3.516,1.586 -3.516,3.902 l 0,12.051 -5.445,0 0,-19.855 5.445,0"
         style="fill:#231f20;fill-opacity:1;fill-rule:nonzero;stroke:none"
         id="path4734"
         inkscape:connector-curvature="0" />
      <path
         d="m 1299.57,265.406 c 0,0.942 0.43,1.285 1.543,1.285 l 0.942,0 0,4.543 -4.328,0 c -2.571,0 -3.602,-1.113 -3.602,-3.769 l 0,-11.578 -2.273,0 0,-4.586 2.273,0 0,-5.317 5.445,0 0,5.317 2.485,-0.004 0,4.59 -2.485,0 0,9.519"
         style="fill:#231f20;fill-opacity:1;fill-rule:nonzero;stroke:none"
         id="path4736"
         inkscape:connector-curvature="0" />
      <path
         d="m 1320.785,259.484 c -0.469,-2.613 -2.359,-4.199 -5.058,-4.199 -2.618,0 -4.375,1.5 -4.891,4.203 l 9.949,-0.004 z m -9.949,3.133 c 0.473,2.746 2.488,4.461 5.187,4.461 2.016,0 3.731,-0.988 4.59,-2.574 l 5.016,1.371 c -1.969,3.859 -5.445,6.047 -9.645,6.047 -6.304,0 -10.804,-4.457 -10.804,-10.629 0,-6.223 4.328,-10.594 10.457,-10.598 6.347,0 10.765,4.461 10.765,10.852 l -0.043,1.07 -15.523,0"
         style="fill:#231f20;fill-opacity:1;fill-rule:nonzero;stroke:none"
         id="path4738"
         inkscape:connector-curvature="0" />
      <path
         d="m 1336.332,251.379 0,2.918 c 0.563,-1.457 0.949,-2.059 1.762,-2.656 0.855,-0.602 2.015,-0.946 3.215,-0.946 0.129,0 0.343,0 0.644,0.043 l 0,5.574 c -0.43,-0.042 -0.859,-0.085 -1.156,-0.085 -1.504,0 -2.875,0.687 -3.649,1.804 -0.64,0.899 -0.816,1.754 -0.816,3.641 l 0,9.562 -5.441,0 0,-19.847 5.441,-0.008"
         style="fill:#231f20;fill-opacity:1;fill-rule:nonzero;stroke:none"
         id="path4740"
         inkscape:connector-curvature="0" />
      <path
         d="m 1351.02,251.379 0,2.445 c 1.46,-2.273 2.921,-3.129 5.41,-3.129 1.879,0 3.683,0.684 4.882,1.844 1.286,1.285 1.762,2.871 1.762,6.133 l 0,12.562 -5.445,0 0,-12.308 c 0,-1.114 -0.133,-1.758 -0.473,-2.317 -0.515,-0.812 -1.543,-1.328 -2.613,-1.328 -2.105,0 -3.523,1.586 -3.523,3.903 l 0,12.05 -5.442,0 0,-19.855 5.442,0"
         style="fill:#231f20;fill-opacity:1;fill-rule:nonzero;stroke:none"
         id="path4742"
         inkscape:connector-curvature="0" />
      <path
         d="m 1373.527,261.453 c 0,3.477 2.27,6.09 5.227,6.09 3.043,0 5.484,-2.832 5.484,-6.258 0,-3.515 -2.226,-6.008 -5.441,-6.004 -3.086,0 -5.27,2.531 -5.27,6.172 z m 10.629,-10.074 5.446,0 0,19.851 -5.446,0 0,-2.746 c -1.844,2.36 -3.984,3.434 -6.902,3.434 -5.578,0 -9.559,-4.332 -9.559,-10.375 0,-6.262 4.2,-10.848 9.989,-10.848 2.699,0 4.539,0.942 6.472,3.215 l 0,-2.531"
         style="fill:#231f20;fill-opacity:1;fill-rule:nonzero;stroke:none"
         id="path4744"
         inkscape:connector-curvature="0" />
      <path
         d="m 1401.473,265.395 c 0,0.949 0.425,1.289 1.543,1.289 l 0.941,0 0,4.543 -4.332,0.003 c -2.57,0 -3.598,-1.117 -3.598,-3.773 l 0,-11.578 -2.277,0 0,-4.59 2.277,0 0,-5.312 5.446,0 0,5.312 2.484,0 0,4.59 -2.484,0 0,9.516"
         style="fill:#231f20;fill-opacity:1;fill-rule:nonzero;stroke:none"
         id="path4746"
         inkscape:connector-curvature="0" />
      <path
         d="m 1414.105,271.227 -5.445,0 0,-19.848 5.445,0 0,19.848 z m 0.301,-25.469 c 0,1.676 -1.285,2.957 -3,2.957 -1.758,0 -3.043,-1.281 -3.043,-2.996 0,-1.758 1.285,-3.047 3.043,-3.047 1.754,0 3,1.285 3,3.086"
         style="fill:#231f20;fill-opacity:1;fill-rule:nonzero;stroke:none"
         id="path4748"
         inkscape:connector-curvature="0" />
      <path
         d="m 1424.164,261.324 c 0,3.426 2.145,5.742 5.316,5.742 3.129,0 5.317,-2.359 5.317,-5.66 0,-3.601 -2.016,-5.828 -5.274,-5.828 -3.214,0 -5.359,2.27 -5.359,5.746 z m 16.125,0.172 c 0,5.828 -4.766,10.414 -10.851,10.414 -6.258,0.004 -10.762,-4.414 -10.762,-10.586 0,-6.304 4.414,-10.636 10.847,-10.636 6.262,0 10.766,4.542 10.766,10.808"
         style="fill:#231f20;fill-opacity:1;fill-rule:nonzero;stroke:none"
         id="path4750"
         inkscape:connector-curvature="0" />
      <path
         d="m 1450.348,251.375 0,2.441 c 1.457,-2.269 2.918,-3.128 5.406,-3.128 1.887,0 3.684,0.683 4.883,1.843 1.289,1.285 1.761,2.871 1.761,6.129 l 0,12.563 -5.445,0.004 0,-12.309 c 0,-1.113 -0.129,-1.758 -0.473,-2.313 -0.511,-0.816 -1.542,-1.332 -2.617,-1.332 -2.097,0 -3.515,1.586 -3.515,3.903 l 0,12.051 -5.442,0 0,-19.852 5.442,0"
         style="fill:#231f20;fill-opacity:1;fill-rule:nonzero;stroke:none"
         id="path4752"
         inkscape:connector-curvature="0" />
      <path
         d="m 1472.852,261.445 c 0,3.473 2.269,6.09 5.226,6.09 3.051,0 5.492,-2.832 5.492,-6.258 0,-3.515 -2.23,-6.004 -5.445,-6.004 -3.086,0 -5.273,2.532 -5.273,6.172 z m 10.632,-10.074 5.442,0 0,19.852 -5.442,0 0,-2.746 c -1.847,2.359 -3.988,3.433 -6.902,3.433 -5.574,0 -9.562,-4.332 -9.562,-10.375 0,-6.262 4.199,-10.847 9.988,-10.847 2.703,0 4.543,0.941 6.476,3.21 l 0,-2.527"
         style="fill:#231f20;fill-opacity:1;fill-rule:nonzero;stroke:none"
         id="path4754"
         inkscape:connector-curvature="0" />
      <path
         d="m 1494.781,242.621 5.445,0 0,28.598 -5.445,0 0,-28.598 z"
         style="fill:#231f20;fill-opacity:1;fill-rule:nonzero;stroke:none"
         id="path4756"
         inkscape:connector-curvature="0" />
      <path
         d="m 1520.52,259.473 c -0.469,-2.618 -2.356,-4.2 -5.059,-4.2 -2.617,0 -4.371,1.497 -4.887,4.2 l 9.946,0 z m -9.946,3.129 c 0.469,2.742 2.488,4.46 5.184,4.46 2.019,-0.003 3.73,-0.988 4.594,-2.578 l 5.015,1.375 c -1.972,3.86 -5.445,6.043 -9.644,6.047 -6.305,0 -10.809,-4.457 -10.809,-10.633 0,-6.218 4.332,-10.589 10.461,-10.589 6.348,0 10.766,4.457 10.766,10.847 l -0.043,1.071 -15.524,0"
         style="fill:#231f20;fill-opacity:1;fill-rule:nonzero;stroke:none"
         id="path4758"
         inkscape:connector-curvature="0" />
      <path
         d="m 1264.117,304.176 2.871,0 c 2.016,0 2.961,-0.176 3.817,-0.774 0.945,-0.644 1.414,-1.672 1.414,-3.043 0,-1.543 -0.559,-2.617 -1.629,-3.257 -0.902,-0.516 -1.801,-0.688 -3.945,-0.688 l -2.528,0.004 0,7.758 z m 0,-12.133 2.356,0 c 3.476,0 5.105,-1.246 5.105,-3.902 0,-1.461 -0.687,-2.703 -1.719,-3.215 -0.812,-0.387 -2.011,-0.559 -3.687,-0.559 l -2.055,0 0,7.676 z m 3.344,-12.133 c 3.516,0 5.785,0.512 7.285,1.625 1.762,1.328 2.746,3.516 2.746,6.047 0,1.973 -0.597,3.602 -1.797,4.887 -0.816,0.812 -1.461,1.199 -3.004,1.715 1.715,0.386 2.485,0.73 3.387,1.546 1.328,1.196 2.055,2.954 2.055,5.141 0,2.66 -1.113,5.02 -2.957,6.262 -1.5,0.988 -3.254,1.375 -6.387,1.375 l -10.547,0 0,-28.598 9.219,0"
         style="fill:#231f20;fill-opacity:1;fill-rule:nonzero;stroke:none"
         id="path4760"
         inkscape:connector-curvature="0" />
      <path
         d="m 1288.422,298.727 c 0,3.476 2.269,6.089 5.226,6.089 3.047,0 5.489,-2.832 5.489,-6.257 0,-3.516 -2.227,-6.008 -5.446,-6.008 -3.086,0 -5.269,2.535 -5.269,6.176 z m 10.633,-10.075 5.445,0 0,19.852 -5.445,0 0,-2.746 c -1.848,2.359 -3.993,3.433 -6.907,3.433 -5.574,0 -9.558,-4.332 -9.558,-10.375 0,-6.261 4.199,-10.847 9.988,-10.847 2.703,0 4.543,0.941 6.477,3.215 l 0,-2.532"
         style="fill:#231f20;fill-opacity:1;fill-rule:nonzero;stroke:none"
         id="path4762"
         inkscape:connector-curvature="0" />
      <path
         d="m 1327.867,288.652 0,12.563 c 0,2.91 -0.597,4.539 -2.222,5.91 -1.59,1.332 -3.821,2.063 -6.434,2.063 -2.742,0 -5.102,-0.774 -6.649,-2.188 -1.414,-1.285 -2.101,-3.172 -2.101,-5.785 l 0,-12.563 5.445,0 0,12.219 c 0,2.227 1.332,3.727 3.305,3.727 2.012,0 3.215,-1.286 3.215,-3.383 l 0,-12.563 5.441,0"
         style="fill:#231f20;fill-opacity:1;fill-rule:nonzero;stroke:none"
         id="path4764"
         inkscape:connector-curvature="0" />
      <path
         d="m 1338.469,298.723 c 0,3.472 2.269,6.089 5.226,6.089 3.047,-0.003 5.489,-2.832 5.489,-6.261 0,-3.516 -2.227,-6.004 -5.446,-6 -3.086,0 -5.269,2.527 -5.269,6.172 z m 10.633,-10.075 5.445,0 0,19.852 -5.445,0 0,-2.746 c -1.848,2.359 -3.989,3.43 -6.907,3.43 -5.574,0 -9.558,-4.329 -9.558,-10.372 0,-6.261 4.199,-10.851 9.988,-10.851 2.703,0 4.543,0.945 6.477,3.215 l 0,-2.528"
         style="fill:#231f20;fill-opacity:1;fill-rule:nonzero;stroke:none"
         id="path4766"
         inkscape:connector-curvature="0" />
      <path
         d="m 1377.914,288.645 0,12.562 c 0,2.918 -0.598,4.543 -2.223,5.918 -1.589,1.332 -3.82,2.059 -6.433,2.059 -2.742,0 -5.102,-0.774 -6.649,-2.188 -1.41,-1.285 -2.101,-3.172 -2.101,-5.785 l 0,-12.563 5.445,0 0,12.215 c 0,2.231 1.336,3.735 3.305,3.731 2.012,0 3.215,-1.285 3.215,-3.387 l 0,-12.562 5.441,0"
         style="fill:#231f20;fill-opacity:1;fill-rule:nonzero;stroke:none"
         id="path4768"
         inkscape:connector-curvature="0" />
      <path
         d="m 1392.672,294.391 0,-0.348 c 0,-1.199 -1.07,-2.055 -2.531,-2.055 -1.325,0 -2.184,0.731 -2.184,1.801 0,0.516 0.215,1.031 0.559,1.289 0.597,0.469 0.644,0.469 3.386,1.324 4.457,1.375 6.215,3.129 6.215,6.348 0,3.855 -3.086,6.43 -7.715,6.434 -4.718,0 -7.59,-2.403 -7.804,-6.52 l 5.23,0 c 0.258,1.715 1.027,2.488 2.617,2.488 1.285,0 2.184,-0.773 2.184,-1.886 0,-1.2 -0.774,-1.762 -3.688,-2.661 -4.285,-1.285 -6.214,-3.214 -6.214,-6.343 0,-3.774 3.043,-6.301 7.675,-6.301 4.543,0 7.286,2.394 7.418,6.43 l -5.148,0"
         style="fill:#231f20;fill-opacity:1;fill-rule:nonzero;stroke:none"
         id="path4770"
         inkscape:connector-curvature="0" />
      <path
         d="m 1412.051,294.387 0,-0.344 c 0,-1.199 -1.074,-2.055 -2.528,-2.055 -1.328,0 -2.187,0.727 -2.187,1.801 0,0.512 0.215,1.027 0.555,1.285 0.601,0.469 0.644,0.469 3.39,1.328 4.461,1.371 6.215,3.129 6.215,6.348 0,3.855 -3.086,6.43 -7.719,6.43 -4.715,0 -7.586,-2.399 -7.804,-6.52 l 5.238,0 c 0.254,1.719 1.023,2.492 2.613,2.492 1.285,0 2.188,-0.773 2.188,-1.89 0,-1.2 -0.774,-1.758 -3.692,-2.657 -4.285,-1.289 -6.215,-3.214 -6.215,-6.347 0,-3.77 3.043,-6.305 7.672,-6.305 4.547,0 7.289,2.402 7.422,6.434 l -5.148,0"
         style="fill:#231f20;fill-opacity:1;fill-rule:nonzero;stroke:none"
         id="path4772"
         inkscape:connector-curvature="0" />
      <path
         d="m 1428.406,302.66 c 0,0.945 0.43,1.285 1.543,1.285 l 0.946,0 0,4.547 -4.329,0 c -2.574,0 -3.605,-1.113 -3.605,-3.769 l 0,-11.582 -2.27,0 0,-4.586 2.27,0 0,-5.317 5.445,0 0,5.317 2.489,0 0,4.586 -2.489,0 0,9.519"
         style="fill:#231f20;fill-opacity:1;fill-rule:nonzero;stroke:none"
         id="path4774"
         inkscape:connector-curvature="0" />
      <path
         d="m 1449.965,296.746 c -0.469,-2.617 -2.36,-4.207 -5.055,-4.207 -2.617,0 -4.375,1.504 -4.89,4.207 l 9.945,0 z m -9.945,3.129 c 0.472,2.742 2.484,4.457 5.187,4.457 2.016,0 3.731,-0.984 4.586,-2.574 l 5.016,1.371 c -1.969,3.859 -5.442,6.047 -9.645,6.047 -6.301,0 -10.801,-4.457 -10.801,-10.629 0,-6.219 4.328,-10.594 10.457,-10.594 6.344,0 10.762,4.461 10.762,10.848 l -0.043,1.074 -15.519,0"
         style="fill:#231f20;fill-opacity:1;fill-rule:nonzero;stroke:none"
         id="path4776"
         inkscape:connector-curvature="0" />
      <path
         d="m 1460.477,279.891 5.438,0 0,28.598 -5.438,0 0,-28.598 z"
         style="fill:#231f20;fill-opacity:1;fill-rule:nonzero;stroke:none"
         id="path4778"
         inkscape:connector-curvature="0" />
      <path
         d="m 1472.09,279.891 5.445,0 0,28.598 -5.445,0 0,-28.598 z"
         style="fill:#231f20;fill-opacity:1;fill-rule:nonzero;stroke:none"
         id="path4780"
         inkscape:connector-curvature="0" />
      <path
         d="m 1500.898,288.637 0,12.562 c 0,2.914 -0.601,4.543 -2.226,5.918 -1.586,1.328 -3.82,2.055 -6.434,2.055 -2.742,0 -5.101,-0.77 -6.644,-2.188 -1.414,-1.285 -2.106,-3.172 -2.106,-5.785 l 0,-12.562 5.446,0 0,12.218 c 0,2.231 1.336,3.731 3.304,3.731 2.016,-0.004 3.215,-1.289 3.215,-3.387 l 0,-12.562 5.445,0"
         style="fill:#231f20;fill-opacity:1;fill-rule:nonzero;stroke:none"
         id="path4782"
         inkscape:connector-curvature="0" />
      <path
         d="m 1512.332,288.637 0,2.441 c 1.457,-2.269 2.918,-3.129 5.402,-3.129 1.887,0 3.684,0.684 4.887,1.844 1.285,1.285 1.758,2.871 1.758,6.129 l 0,12.562 -5.445,0 0,-12.304 c 0,-1.118 -0.129,-1.758 -0.473,-2.317 -0.516,-0.812 -1.543,-1.324 -2.613,-1.324 -2.106,0 -3.516,1.586 -3.516,3.899 l 0,12.046 -5.445,0 0,-19.847 5.445,0"
         style="fill:#231f20;fill-opacity:1;fill-rule:nonzero;stroke:none"
         id="path4784"
         inkscape:connector-curvature="0" />
      <path
         d="m 1534.824,298.449 c 0,3.434 2.227,5.875 5.36,5.875 1.586,0 3.128,-0.687 4.117,-1.844 0.644,-0.773 1.027,-2.015 1.027,-3.515 0,-2.145 -0.473,-3.602 -1.461,-4.629 -0.984,-0.945 -2.355,-1.543 -3.73,-1.543 -3.125,0 -5.313,2.359 -5.313,5.656 z m 10.59,-9.816 5.359,-0.004 0,18.394 c 0,4.075 -0.769,6.434 -2.66,8.278 -1.925,1.929 -4.843,3.004 -8.23,3.004 -3.86,0 -7.035,-1.289 -9.731,-3.946 l 3.387,-3.433 c 1.758,1.89 3.645,2.746 6.133,2.746 3.64,0 5.742,-2.145 5.742,-5.875 l 0,-2.016 c -1.801,2.274 -4.117,3.387 -6.988,3.387 -5.442,0 -9.391,-4.414 -9.391,-10.457 0,-6.434 3.988,-10.766 9.949,-10.766 2.786,0 4.715,0.946 6.43,3.129 l 0,-2.441"
         style="fill:#231f20;fill-opacity:1;fill-rule:nonzero;stroke:none"
         id="path4786"
         inkscape:connector-curvature="0" />
      <path
         d="m 982.215,436.852 -5.871,0 0,-28.598 5.871,0 0,12.09 10.847,0 0,-12.09 5.872,0 0,28.598 -5.872,0 0,-11.711 -10.847,0 0,11.711"
         style="fill:#231f20;fill-opacity:1;fill-rule:nonzero;stroke:none"
         id="path4788"
         inkscape:connector-curvature="0" />
      <path
         d="m 1019.867,425.102 c -0.469,-2.618 -2.355,-4.207 -5.058,-4.207 -2.618,0 -4.375,1.5 -4.887,4.207 l 9.945,0 z m -9.945,3.128 c 0.469,2.747 2.484,4.458 5.187,4.458 2.016,0 3.731,-0.985 4.586,-2.571 l 5.016,1.367 c -1.969,3.86 -5.441,6.051 -9.645,6.051 -6.3,0 -10.804,-4.461 -10.804,-10.633 0,-6.218 4.332,-10.593 10.461,-10.593 6.347,0 10.765,4.464 10.765,10.847 l -0.043,1.074 -15.523,0"
         style="fill:#231f20;fill-opacity:1;fill-rule:nonzero;stroke:none"
         id="path4790"
         inkscape:connector-curvature="0" />
      <path
         d="m 1035.391,436.852 -5.446,0 0,-19.856 5.446,0 0,19.856 z m 0.3,-25.469 c 0,1.668 -1.289,2.953 -3,2.953 -1.761,0 -3.046,-1.285 -3.046,-2.996 0,-1.762 1.285,-3.051 3.046,-3.051 1.754,0 3,1.289 3,3.094"
         style="fill:#231f20;fill-opacity:1;fill-rule:nonzero;stroke:none"
         id="path4792"
         inkscape:connector-curvature="0" />
      <path
         d="m 1045.902,427.156 c 0,3.434 2.274,6.004 5.36,6.004 3,0 5.32,-2.613 5.32,-6.047 0,-3.597 -2.23,-6.218 -5.277,-6.218 -3.129,0 -5.403,2.621 -5.403,6.261 z m 10.68,-18.902 5.441,0 0,28.598 -5.441,0 0,-2.622 c -1.719,2.36 -3.605,3.305 -6.652,3.305 -5.871,0 -9.813,-4.199 -9.813,-10.422 0,-3.343 1.113,-6.129 3.168,-8.058 1.891,-1.762 4.293,-2.746 6.735,-2.746 2.699,0 4.628,0.859 6.562,2.875 l 0,-10.93"
         style="fill:#231f20;fill-opacity:1;fill-rule:nonzero;stroke:none"
         id="path4794"
         inkscape:connector-curvature="0" />
      <path
         d="m 1082.332,425.102 c -0.469,-2.618 -2.359,-4.207 -5.059,-4.207 -2.617,0 -4.375,1.5 -4.886,4.207 l 9.945,0 z m -9.945,3.128 c 0.468,2.747 2.484,4.458 5.183,4.458 2.02,0 3.735,-0.985 4.59,-2.571 l 5.016,1.367 c -1.969,3.86 -5.446,6.051 -9.645,6.051 -6.301,0 -10.804,-4.461 -10.804,-10.633 0,-6.218 4.332,-10.593 10.461,-10.593 6.347,0 10.765,4.464 10.765,10.847 l -0.047,1.074 -15.519,0"
         style="fill:#231f20;fill-opacity:1;fill-rule:nonzero;stroke:none"
         id="path4796"
         inkscape:connector-curvature="0" />
      <path
         d="m 1092.539,408.254 5.445,0 0,28.598 -5.445,0 0,-28.598 z"
         style="fill:#231f20;fill-opacity:1;fill-rule:nonzero;stroke:none"
         id="path4798"
         inkscape:connector-curvature="0" />
      <path
         d="m 1109.227,427.074 c 0,3.555 2.187,6.043 5.316,6.043 3.176,0 5.398,-2.488 5.398,-6.043 0,-3.523 -2.269,-6.179 -5.269,-6.179 -3.043,0 -5.445,2.746 -5.445,6.179 z m 0.085,9.778 -5.445,0 0,-28.598 5.445,0 0,11.141 c 1.887,-2.184 3.727,-3.086 6.434,-3.086 5.828,0 9.988,4.464 9.988,10.722 0,6.215 -3.945,10.504 -9.734,10.504 -3,0 -4.934,-0.945 -6.688,-3.262 l 0,2.579"
         style="fill:#231f20;fill-opacity:1;fill-rule:nonzero;stroke:none"
         id="path4800"
         inkscape:connector-curvature="0" />
      <path
         d="m 1144.949,425.102 c -0.469,-2.618 -2.359,-4.207 -5.058,-4.207 -2.618,0 -4.375,1.5 -4.887,4.207 l 9.945,0 z m -9.945,3.128 c 0.469,2.747 2.484,4.458 5.184,4.458 2.019,0 3.73,-0.985 4.589,-2.571 l 5.016,1.367 c -1.969,3.86 -5.445,6.051 -9.645,6.051 -6.3,0 -10.804,-4.461 -10.804,-10.633 0,-6.218 4.332,-10.593 10.461,-10.593 6.343,0 10.765,4.464 10.765,10.847 l -0.047,1.074 -15.519,0"
         style="fill:#231f20;fill-opacity:1;fill-rule:nonzero;stroke:none"
         id="path4802"
         inkscape:connector-curvature="0" />
      <path
         d="m 1160.543,416.996 0,2.918 c 0.559,-1.465 0.949,-2.062 1.758,-2.656 0.859,-0.606 2.015,-0.949 3.219,-0.949 0.128,0 0.339,0 0.644,0.046 l 0,5.575 c -0.434,-0.043 -0.859,-0.086 -1.16,-0.086 -1.5,0 -2.875,0.683 -3.645,1.797 -0.64,0.902 -0.816,1.761 -0.816,3.644 l 0,9.567 -5.445,0 0,-19.856 5.445,0"
         style="fill:#231f20;fill-opacity:1;fill-rule:nonzero;stroke:none"
         id="path4804"
         inkscape:connector-curvature="0" />
      <path
         d="m 1174.266,426.812 c 0,3.43 2.234,5.876 5.363,5.876 1.586,0 3.129,-0.684 4.113,-1.844 0.649,-0.77 1.031,-2.016 1.031,-3.516 0,-2.144 -0.472,-3.601 -1.461,-4.629 -0.984,-0.945 -2.355,-1.543 -3.73,-1.543 -3.125,0 -5.316,2.36 -5.316,5.656 z m 10.593,-9.816 5.36,0 0,18.391 c 0,4.078 -0.774,6.433 -2.66,8.277 -1.93,1.926 -4.844,3.004 -8.235,3.004 -3.855,0 -7.031,-1.289 -9.73,-3.945 l 3.386,-3.434 c 1.762,1.891 3.645,2.742 6.133,2.742 3.645,0 5.746,-2.136 5.746,-5.871 l 0,-2.015 c -1.8,2.277 -4.117,3.39 -6.988,3.39 -5.445,0 -9.391,-4.418 -9.391,-10.461 0,-6.433 3.989,-10.765 9.95,-10.765 2.785,0 4.715,0.949 6.429,3.132 l 0,-2.445"
         style="fill:#231f20;fill-opacity:1;fill-rule:nonzero;stroke:none"
         id="path4806"
         inkscape:connector-curvature="0" />
      <path
         d="m 1216.035,412.133 27.809,14.652 -27.824,14.485 0.015,-29.137 z"
         style="fill:#231f20;fill-opacity:1;fill-rule:nonzero;stroke:none"
         id="path4808"
         inkscape:connector-curvature="0" />
      <path
         d="m 976.254,242.629 26.727,0 0,144.547 -26.727,0 0,-144.547 z"
         style="fill:#231f20;fill-opacity:1;fill-rule:nonzero;stroke:none"
         id="path4810"
         inkscape:connector-curvature="0" />
      <path
         d="m 1055.246,365.289 13.07,0 c 9.164,0 13.454,-0.875 17.356,-3.902 4.293,-3.254 6.43,-8.457 6.43,-15.387 0,-7.805 -2.532,-13.219 -7.411,-16.469 -4.086,-2.601 -8.183,-3.461 -17.937,-3.461 l -11.508,0 0,39.219 z m 0,-61.332 10.731,0 c 15.793,0 23.203,-6.285 23.203,-19.723 0,-7.359 -3.114,-13.648 -7.801,-16.25 -3.703,-1.953 -9.168,-2.812 -16.774,-2.812 l -9.359,0 0,38.785 z m 15.211,-61.328 c 15.996,0 26.332,2.605 33.152,8.238 8,6.711 12.485,17.77 12.485,30.551 0,9.973 -2.727,18.203 -8.188,24.703 -3.707,4.121 -6.633,6.07 -13.656,8.676 7.801,1.945 11.316,3.676 15.41,7.797 6.047,6.066 9.36,14.949 9.36,26.011 0,13.43 -5.067,25.352 -13.454,31.633 -6.828,4.985 -14.824,6.938 -29.058,6.938 l -47.981,0 0,-144.547 41.93,0"
         style="fill:#231f20;fill-opacity:1;fill-rule:nonzero;stroke:none"
         id="path4812"
         inkscape:connector-curvature="0" />
      <path
         d="m 1165.5,337.98 18.133,-59.808 17.945,59.808 -36.078,0 z m 69.738,16.629 0.032,0.067 -34.469,-112.047 -33.348,0 -44.859,144.547 28.277,0 7.797,-24.914 49.934,0 7.41,24.914 0.011,0 19.215,-32.567"
         style="fill:#231f20;fill-opacity:1;fill-rule:nonzero;stroke:none"
         id="path4814"
         inkscape:connector-curvature="0" />
      <path
         d="m 1276.145,337.859 2.105,0 -4.941,16.161 -1.793,0 -3.559,-12.696 -3.59,12.696 -1.789,0 -4.941,-16.161 2.152,0 3.684,12.375 3.589,-12.375 1.915,0 3.464,12.426 3.704,-12.426"
         style="fill:#231f20;fill-opacity:1;fill-rule:nonzero;stroke:none"
         id="path4816"
         inkscape:connector-curvature="0" />
      <path
         d="m 1282.617,354.02 -1.84,0 0,-11.172 1.84,0 0,11.172 z m 0.289,-14.297 c 0,0.656 -0.531,1.164 -1.187,1.164 -0.676,0 -1.184,-0.508 -1.184,-1.184 0,-0.68 0.508,-1.187 1.184,-1.187 0.683,0 1.187,0.531 1.187,1.207"
         style="fill:#231f20;fill-opacity:1;fill-rule:nonzero;stroke:none"
         id="path4818"
         inkscape:connector-curvature="0" />
      <path
         d="m 1291.984,345.902 0,-0.121 c 0,-1.043 -0.851,-1.695 -2.132,-1.695 -1.235,0 -2.012,0.633 -2.012,1.598 0,0.968 0.484,1.332 2.496,1.89 1.43,0.391 2.18,0.754 2.715,1.285 0.554,0.555 0.898,1.356 0.898,2.176 0,1.945 -1.601,3.246 -3.976,3.246 -2.543,0 -3.973,-1.183 -4.168,-3.433 l 1.816,0 c 0.125,1.257 0.949,1.937 2.352,1.937 1.261,0 2.082,-0.656 2.082,-1.648 0,-0.973 -0.629,-1.453 -2.543,-1.942 -2.422,-0.652 -3.512,-1.668 -3.512,-3.363 0,-1.941 1.57,-3.246 3.922,-3.246 2.375,0 3.808,1.207 3.902,3.316 l -1.84,0"
         style="fill:#231f20;fill-opacity:1;fill-rule:nonzero;stroke:none"
         id="path4820"
         inkscape:connector-curvature="0" />
      <path
         d="m 1302.625,345.902 0,-0.121 c 0,-1.043 -0.844,-1.695 -2.133,-1.695 -1.23,0 -2.012,0.633 -2.012,1.598 0,0.968 0.489,1.332 2.5,1.89 1.426,0.391 2.18,0.754 2.715,1.285 0.551,0.555 0.895,1.356 0.895,2.176 0,1.945 -1.602,3.246 -3.977,3.246 -2.539,0 -3.972,-1.183 -4.16,-3.433 l 1.813,0 c 0.121,1.257 0.945,1.937 2.347,1.937 1.262,0 2.082,-0.656 2.082,-1.648 0,-0.973 -0.625,-1.453 -2.539,-1.942 -2.422,-0.652 -3.515,-1.668 -3.515,-3.363 0,-1.941 1.574,-3.246 3.929,-3.246 2.371,0 3.801,1.207 3.895,3.316 l -1.84,0"
         style="fill:#231f20;fill-opacity:1;fill-rule:nonzero;stroke:none"
         id="path4822"
         inkscape:connector-curvature="0" />
      <path
         d="m 1316.387,347.672 c -0.071,-0.871 -0.242,-1.36 -0.633,-1.914 -0.699,-0.946 -1.836,-1.528 -3.07,-1.528 -1.239,0 -2.352,0.582 -3.008,1.551 -0.336,0.531 -0.485,0.996 -0.629,1.891 l 7.34,0 z m -7.364,1.355 c 0.098,0.946 0.266,1.426 0.727,2.039 0.727,0.989 1.789,1.52 3.004,1.52 1.379,0 2.687,-0.75 3.344,-1.914 l 1.621,0.613 c -0.922,1.863 -2.832,2.996 -4.965,2.996 -3.316,0 -5.692,-2.422 -5.692,-5.812 0,-3.438 2.344,-5.883 5.622,-5.883 3.246,0 5.668,2.445 5.668,5.711 0,0.148 0,0.465 -0.028,0.73 l -9.301,0"
         style="fill:#231f20;fill-opacity:1;fill-rule:nonzero;stroke:none"
         id="path4824"
         inkscape:connector-curvature="0" />
      <path
         d="m 1323.34,342.848 0,1.578 c 0.965,-1.309 1.933,-1.84 3.316,-1.84 1.012,0 1.938,0.336 2.594,0.914 0.699,0.68 0.941,1.457 0.941,2.984 l 0,7.536 -1.843,0 0,-7.125 c 0,-0.993 -0.118,-1.528 -0.41,-1.915 -0.313,-0.46 -0.993,-0.75 -1.747,-0.75 -0.824,0 -1.57,0.317 -2.129,0.946 -0.535,0.582 -0.722,1.113 -0.722,2.035 l 0,6.809 -1.844,0 0,-11.172 1.844,0"
         style="fill:#231f20;fill-opacity:1;fill-rule:nonzero;stroke:none"
         id="path4826"
         inkscape:connector-curvature="0" />
      <path
         d="m 1339.832,336.367 2.008,0 0,20.207 -2.008,0 0,-20.207 z"
         style="fill:#231f20;fill-opacity:1;fill-rule:nonzero;stroke:none"
         id="path4828"
         inkscape:connector-curvature="0" />
      <path
         d="m 1355.965,345.902 0,-0.121 c 0,-1.043 -0.848,-1.695 -2.129,-1.695 -1.238,0 -2.016,0.633 -2.016,1.598 0,0.968 0.485,1.332 2.496,1.89 1.434,0.391 2.184,0.754 2.715,1.285 0.555,0.555 0.895,1.356 0.895,2.176 0,1.945 -1.598,3.246 -3.973,3.246 -2.543,0 -3.973,-1.183 -4.164,-3.433 l 1.816,0 c 0.122,1.257 0.942,1.937 2.348,1.937 1.262,0 2.082,-0.656 2.082,-1.648 0,-0.973 -0.629,-1.453 -2.539,-1.942 -2.426,-0.652 -3.516,-1.668 -3.516,-3.363 0,-1.941 1.579,-3.246 3.93,-3.246 2.371,0 3.797,1.207 3.899,3.316 l -1.844,0"
         style="fill:#231f20;fill-opacity:1;fill-rule:nonzero;stroke:none"
         id="path4830"
         inkscape:connector-curvature="0" />
      <path
         d="m 1369.992,352.637 c -1.258,1.136 -2.496,1.644 -4.117,1.644 -3.199,0 -5.473,-2.422 -5.473,-5.812 0,-3.461 2.297,-5.883 5.567,-5.883 1.601,0 2.91,0.531 4.074,1.668 l -1.191,1.187 c -0.844,-0.773 -1.793,-1.16 -2.832,-1.16 -2.208,0 -3.731,1.696 -3.731,4.117 0,2.473 1.523,4.188 3.707,4.188 1.086,0 1.957,-0.363 2.856,-1.207 l 1.14,1.258"
         style="fill:#231f20;fill-opacity:1;fill-rule:nonzero;stroke:none"
         id="path4832"
         inkscape:connector-curvature="0" />
      <path
         d="m 1374.582,344.398 c 1.012,-1.257 2.027,-1.812 3.359,-1.812 0.969,0 1.989,0.383 2.59,1.019 0.61,0.602 0.875,1.477 0.875,2.903 l 0,7.512 -1.84,0 0,-7.418 c 0,-1.52 -0.754,-2.372 -2.082,-2.372 -0.851,0 -1.605,0.34 -2.179,0.997 -0.559,0.625 -0.723,1.187 -0.723,2.25 l 0,6.543 -1.844,0 0,-16.161 1.844,0 0,6.539"
         style="fill:#231f20;fill-opacity:1;fill-rule:nonzero;stroke:none"
         id="path4834"
         inkscape:connector-curvature="0" />
      <path
         d="m 1387.484,345.562 c -0.582,0.801 -0.914,1.864 -0.914,2.954 0,2.375 1.547,4.172 3.575,4.172 2.113,0 3.832,-1.965 3.832,-4.36 0,-2.426 -1.551,-4.098 -3.778,-4.098 -1.211,0 -2.062,0.415 -2.715,1.332 z m 6.469,-2.714 1.844,0 0,11.172 -1.844,0 0,-2.161 c -1.113,1.672 -2.371,2.422 -4.066,2.422 -3.078,0 -5.258,-2.422 -5.258,-5.812 0,-3.418 2.23,-5.883 5.305,-5.883 1.691,0 2.929,0.652 4.019,2.105 l 0,-1.843"
         style="fill:#231f20;fill-opacity:1;fill-rule:nonzero;stroke:none"
         id="path4836"
         inkscape:connector-curvature="0" />
      <path
         d="m 1402.02,354.02 -1.84,0 0,-9.547 -1.528,0 0,-1.625 1.528,0 0,-1.5 c 0,-2.227 1.14,-3.512 3.078,-3.512 0.094,0 0.312,0 0.508,0.023 l 0,1.645 c -1.383,0.199 -1.746,0.562 -1.746,1.844 l 0,1.5 1.746,0 0,1.625 -1.746,0 0,9.547"
         style="fill:#231f20;fill-opacity:1;fill-rule:nonzero;stroke:none"
         id="path4838"
         inkscape:connector-curvature="0" />
      <path
         d="m 1409.172,354.02 -1.844,0 0,-9.547 -1.523,0 0,-1.625 1.523,0 0,-1.5 c 0,-2.227 1.137,-3.512 3.074,-3.512 0.098,0 0.321,0 0.512,0.023 l 0,1.645 c -1.379,0.199 -1.742,0.562 -1.742,1.844 l 0,1.5 1.742,0 0,1.625 -1.742,0 0,9.547"
         style="fill:#231f20;fill-opacity:1;fill-rule:nonzero;stroke:none"
         id="path4840"
         inkscape:connector-curvature="0" />
      <path
         d="m 1416.293,351.742 c 0,0.531 0.195,0.676 0.848,0.676 l 0.847,0 0,1.602 -1.718,0 c -1.286,0 -1.821,-0.508 -1.821,-1.747 l 0,-7.8 -1.547,0 0,-1.625 1.547,0 0,-3.508 1.844,0 0,3.508 1.695,0 0,1.625 -1.695,0 0,7.269"
         style="fill:#231f20;fill-opacity:1;fill-rule:nonzero;stroke:none"
         id="path4842"
         inkscape:connector-curvature="0" />
      <path
         d="m 1428.234,336.367 2.012,0 0,20.207 -2.012,0 0,-20.207 z"
         style="fill:#231f20;fill-opacity:1;fill-rule:nonzero;stroke:none"
         id="path4844"
         inkscape:connector-curvature="0" />
      <path
         d="m 1441.387,349.684 c 0.097,1.839 1.09,2.808 2.859,2.808 1.813,0 3.102,-1.113 3.102,-2.738 0,-1.406 -0.727,-2.059 -3.274,-2.902 -1.914,-0.657 -2.539,-0.973 -3.269,-1.625 -0.821,-0.754 -1.258,-1.821 -1.258,-3.059 0,-2.734 1.961,-4.598 4.816,-4.598 2.864,0 4.727,1.817 4.797,4.629 l -2.035,0 c -0.02,-0.828 -0.117,-1.215 -0.387,-1.676 -0.457,-0.703 -1.351,-1.136 -2.394,-1.136 -1.602,0 -2.739,1.086 -2.739,2.636 0,0.782 0.336,1.457 0.918,1.868 0.512,0.363 0.946,0.558 2.59,1.14 1.723,0.602 2.551,1.039 3.203,1.746 0.7,0.75 1.086,1.766 1.086,2.856 0,2.785 -2.054,4.679 -5.082,4.679 -2.062,0 -3.465,-0.726 -4.316,-2.183 -0.383,-0.656 -0.555,-1.332 -0.555,-2.109 l 0,-0.336 1.938,0"
         style="fill:#231f20;fill-opacity:1;fill-rule:nonzero;stroke:none"
         id="path4846"
         inkscape:connector-curvature="0" />
      <path
         d="m 1454.742,351.742 c 0,0.531 0.196,0.676 0.848,0.676 l 0.851,0 0,1.602 -1.718,0 c -1.289,0 -1.821,-0.508 -1.821,-1.747 l 0,-7.8 -1.55,0 0,-1.625 1.55,0 0,-3.508 1.84,0 0,3.508 1.699,0 0,1.625 -1.699,0 0,7.269"
         style="fill:#231f20;fill-opacity:1;fill-rule:nonzero;stroke:none"
         id="path4848"
         inkscape:connector-curvature="0" />
      <path
         d="m 1461.363,345.562 c -0.582,0.801 -0.922,1.864 -0.922,2.954 0,2.375 1.551,4.172 3.586,4.172 2.11,0 3.825,-1.965 3.825,-4.36 0,-2.426 -1.547,-4.098 -3.778,-4.098 -1.215,0 -2.058,0.415 -2.711,1.332 z m 6.469,-2.714 1.836,0 0,11.172 -1.836,0 0,-2.161 c -1.117,1.672 -2.379,2.422 -4.074,2.422 -3.074,0 -5.258,-2.422 -5.258,-5.812 0,-3.418 2.23,-5.883 5.305,-5.883 1.695,0 2.933,0.652 4.027,2.105 l 0,-1.843"
         style="fill:#231f20;fill-opacity:1;fill-rule:nonzero;stroke:none"
         id="path4850"
         inkscape:connector-curvature="0" />
      <path
         d="m 1474.898,348.516 c 0,2.449 1.477,4.172 3.59,4.172 2.157,0 3.731,-1.797 3.731,-4.219 0,-2.52 -1.485,-4.239 -3.61,-4.239 -2.203,0 -3.711,1.747 -3.711,4.286 z m 7.321,-10.657 1.836,0 0,16.161 -1.836,0 0,-1.915 c -1.117,1.524 -2.305,2.176 -4,2.176 -3.078,0 -5.258,-2.394 -5.258,-5.785 0,-3.394 2.23,-5.91 5.258,-5.91 1.648,0 2.914,0.602 4,1.961 l 0,-6.688"
         style="fill:#231f20;fill-opacity:1;fill-rule:nonzero;stroke:none"
         id="path4852"
         inkscape:connector-curvature="0" />
      <path
         d="m 1490.215,351.742 c 0,0.531 0.191,0.676 0.844,0.676 l 0.851,0 0,1.602 -1.722,0 c -1.286,0 -1.817,-0.508 -1.817,-1.747 l 0,-7.8 -1.551,0 0,-1.625 1.551,0 0,-3.508 1.844,0 0,3.508 1.695,0 0,1.625 -1.695,0 0,7.269"
         style="fill:#231f20;fill-opacity:1;fill-rule:nonzero;stroke:none"
         id="path4854"
         inkscape:connector-curvature="0" />
    </g>
  </g>
</svg>
