<?xml version="1.0" encoding="UTF-8" standalone="no"?>
<!-- Created with Inkscape (http://www.inkscape.org/) -->
<svg id="svg7205" xmlns:rdf="http://www.w3.org/1999/02/22-rdf-syntax-ns#" xmlns="http://www.w3.org/2000/svg" height="30mm" width="170mm" version="1.1" xmlns:cc="http://creativecommons.org/ns#" xmlns:dc="http://purl.org/dc/elements/1.1/" viewBox="0 0 602.3622 106.29921">
 <defs id="defs7207">
  <clipPath id="clipPath362" clipPathUnits="userSpaceOnUse">
   <path id="path364" d="m36 697.78h220.13v47.066h-220.13v-47.066z"/>
  </clipPath>
 </defs>
 <metadata id="metadata7210">
  <rdf:RDF>
   <cc:Work rdf:about="">
    <dc:format>image/svg+xml</dc:format>
    <dc:type rdf:resource="http://purl.org/dc/dcmitype/StillImage"/>
    <dc:title/>
   </cc:Work>
  </rdf:RDF>
 </metadata>
 <g id="layer1" transform="translate(0 -946.06)">
  <g id="g7817" transform="matrix(1.9938 0 0 1.9938 -268.33 757.71)">
   <g id="g358" transform="matrix(1.25 0 0 -1.25 103.42 1036.9)">
    <g id="g360" clip-path="url(#clipPath362)">
     <g id="g366" transform="translate(97.772 738.82)">
      <path id="path368" d="m0 0-4.991-7.176h10.078l-5.087 7.176zm12.556-18.232-4.337 6.523h-16.211l-4.239-6.523h-6.197l15.656 22.602c0.76 1.087 1.738 1.631 2.934 1.631 1.218 0 2.207-0.533 2.969-1.598l15.33-22.635h-5.905z"/>
     </g>
     <g id="g370" transform="translate(150.06 720.58)">
      <path id="path372" d="m0 0v15.688l-11.209-14.417c-0.39-0.5-0.846-0.874-1.367-1.124-0.522-0.251-1.075-0.375-1.661-0.375-1.282 0-2.315 0.5-3.095 1.499l-11.371 14.547v-15.818h-5.25v21.624c0 0.826 0.26 1.473 0.783 1.94s1.197 0.702 2.025 0.702c1.218 0 2.174-0.414 2.872-1.239l14.068-17.287 13.775 17.254c0.653 0.848 1.576 1.272 2.774 1.272 0.87 0 1.574-0.261 2.107-0.783 0.531-0.521 0.799-1.207 0.799-2.055v-21.428h-5.25z"/>
     </g>
     <path id="path374" d="m160.6 744.69h5.25v-24.103h-5.25v24.103z"/>
     <g id="g376" transform="translate(222.78 737.9)">
      <path id="path378" d="m0 0c0 1.543-1.913 2.316-5.738 2.316h-6.525c-3.848 0-5.773-0.773-5.773-2.316v-10.6c0-1.457 1.925-2.185 5.773-2.185h6.589c3.784 0 5.674 0.728 5.674 2.185v10.6zm5.253-10.657c0-4.442-3.687-6.662-11.058-6.662h-6.426c-1.738 0-3.288 0.147-4.647 0.441-1.359 0.293-2.517 0.718-3.472 1.274-0.958 0.555-1.685 1.246-2.187 2.074-0.499 0.827-0.748 1.774-0.748 2.841v10.81c0 4.463 3.684 6.695 11.054 6.695h6.426c1.977 0 3.669-0.13 5.072-0.391 1.402-0.262 2.549-0.664 3.441-1.209 0.891-0.544 1.539-1.241 1.94-2.091 0.403-0.848 0.605-1.85 0.605-3.004v-10.778z"/>
     </g>
     <g id="g380" transform="translate(242.32 720.58)">
      <path id="path382" d="m0 0c-2.065 0-3.828 0.13-5.284 0.391-1.458 0.262-2.652 0.657-3.587 1.191-0.936 0.532-1.621 1.212-2.057 2.038-0.434 0.826-0.65 1.805-0.65 2.936v17.547h5.251v-17.547c0-0.37 0.114-0.685 0.342-0.946 0.228-0.262 0.597-0.473 1.109-0.636 0.51-0.163 1.184-0.277 2.023-0.342 0.836-0.065 1.863-0.099 3.081-0.099h13.014v-4.533h-13.242z"/>
     </g>
     <g id="g384" transform="translate(55.458 740.18)">
      <path id="path386" d="m0 0h-8.787c-3.568 0-5.352-0.628-5.352-1.885v-1.684c0-1.187 1.882-1.785 5.648-1.785h5.582c1.598 0 3.047-0.136 4.35-0.407 1.302-0.273 2.402-0.672 3.3-1.196 0.897-0.524 1.592-1.168 2.084-1.932 0.494-0.767 0.74-1.639 0.74-2.624v-1.636c0-1.355-0.209-2.456-0.624-3.309-0.417-0.851-1.051-1.523-1.905-2.014-0.853-0.491-1.942-0.83-3.267-1.015-1.324-0.187-2.906-0.279-4.744-0.279h-16.483v4.564h17.271c2.977 0 4.466 0.592 4.466 1.774v1.609c0 1.268-1.698 1.904-5.09 1.904h-7.322c-1.313 0-2.54 0.142-3.677 0.426-1.139 0.285-2.123 0.691-2.956 1.218-0.832 0.525-1.483 1.158-1.953 1.891-0.471 0.736-0.706 1.553-0.706 2.454v2.041c0 1.118 0.202 2.083 0.608 2.894 0.403 0.812 1.055 1.481 1.952 2.008 0.898 0.526 2.058 0.911 3.481 1.151 1.423 0.243 7.681 0.363 9.74 0.363h3.644v-4.531z"/>
     </g>
     <g id="g388" transform="translate(189.56 740.18)">
      <path id="path390" d="m0 0h-8.787c-3.569 0-5.352-0.628-5.352-1.885v-1.684c0-1.187 1.882-1.785 5.647-1.785h5.582c1.599 0 3.048-0.136 4.351-0.407 1.302-0.273 2.402-0.672 3.299-1.196s1.593-1.168 2.085-1.932c0.494-0.767 0.739-1.639 0.739-2.624v-1.636c0-1.355-0.208-2.456-0.624-3.309-0.416-0.851-1.05-1.523-1.904-2.014-0.853-0.491-1.943-0.83-3.267-1.015-1.325-0.187-2.906-0.279-4.744-0.279h-16.483v4.564h17.271c2.977 0 4.465 0.592 4.465 1.774v1.609c0 1.268-1.697 1.904-5.089 1.904h-7.322c-1.314 0-2.54 0.142-3.678 0.426-1.138 0.285-2.123 0.691-2.955 1.218-0.832 0.525-1.484 1.158-1.953 1.891-0.472 0.736-0.706 1.553-0.706 2.454v2.041c0 1.118 0.202 2.083 0.607 2.894 0.404 0.812 1.056 1.481 1.952 2.008 0.899 0.526 2.059 0.911 3.481 1.151 1.423 0.243 7.682 0.363 9.74 0.363h3.645v-4.531z"/>
     </g>
    </g>
   </g>
   <g id="g354" transform="matrix(1.25 0 0 -1.25 177.56 106.29)">
    <path id="path356" d="m0 0v-4.501h10.632v-19.634h5.25v19.634h10.666v4.501h-26.548z"/>
   </g>
  </g>
 </g>
</svg>
