<?xml version="1.0" encoding="utf-8"?>
<!-- Generator: Adobe Illustrator 25.2.0, SVG Export Plug-In . SVG Version: 6.00 Build 0)  -->
<svg version="1.1" id="Ebene_2" xmlns="http://www.w3.org/2000/svg" xmlns:xlink="http://www.w3.org/1999/xlink" x="0px" y="0px"
	 viewBox="0 0 404.41 400" style="enable-background:new 0 0 404.41 400;" xml:space="preserve">
<style type="text/css">
	.st0{fill:#2E2D2B;}
</style>
<g>
	<path class="st0" d="M67.11,75.13c4.72,0.57,8.51,1.43,11.37,2.58c2.86,1.15,5.14,2.64,6.82,4.47c1.68,1.83,2.95,3.98,3.79,6.45
		c0.84,2.47,1.6,5.33,2.27,8.6c0.67,3.27,1.4,6.94,2.19,11c0.78,4.07,1.96,8.63,3.54,13.67H64.25c-1.12-4.81-1.83-9.34-2.11-13.58
		c-0.28-4.24-0.87-7.96-1.77-11.17c-0.9-3.21-2.5-5.73-4.8-7.57c-2.3-1.83-5.98-2.75-11.04-2.75H34.26v35.07H4.1V1.55h55.6
		c5.62,0,10.61,0.83,15,2.49C79.07,5.7,82.78,8.02,85.81,11c3.03,2.98,5.33,6.56,6.91,10.75c1.57,4.19,2.36,8.8,2.36,13.84
		c0,11.92-2.47,20.92-7.41,26.99c-4.94,6.08-11.79,10.03-20.56,11.86V75.13z M34.26,61.38h18.2c4.27,0,7.44-1.81,9.52-5.42
		c2.08-3.61,3.12-7.82,3.12-12.64c0-4.93-1.12-8.88-3.37-11.86c-2.25-2.98-5.45-4.47-9.6-4.47H34.26V61.38z"/>
	<path class="st0" d="M172.58,101.44h-35.21l-4.55,20.46h-29.49L132.82,1.55h46.17l29.65,120.35h-31.68L172.58,101.44z
		 M167.19,76.16l-12.13-56.22l-12.3,56.22H167.19z"/>
	<path class="st0" d="M302.49,1.55v79.43c0,15.25-3.79,26.16-11.37,32.75c-7.58,6.59-18.73,9.89-33.44,9.89
		c-14.6,0-25.72-3.29-33.36-9.89c-7.64-6.59-11.46-17.51-11.46-32.75V1.55h30.16v76.51c0,7.22,1.18,12.38,3.54,15.47
		c2.36,3.09,6.07,4.64,11.12,4.64c5.05,0,8.79-1.55,11.2-4.64c2.41-3.09,3.62-8.25,3.62-15.47V1.55H302.49z"/>
	<path class="st0" d="M360.11,123.61c-13.59,0-24.35-2.92-32.27-8.77c-7.92-5.85-12.72-14.33-14.41-25.45l28.31-10.14
		c0.22,7.22,1.94,12.52,5.14,15.9c3.2,3.38,8.11,5.07,14.74,5.07c3.59,0,6.37-0.92,8.34-2.75c1.96-1.83,2.95-3.78,2.95-5.85
		c0-3.09-0.84-5.56-2.53-7.39c-1.68-1.83-3.88-3.38-6.57-4.64c-2.7-1.26-5.79-2.32-9.27-3.18c-3.48-0.86-7.02-1.86-10.62-3.01
		c-3.6-1.14-7.13-2.55-10.61-4.21c-3.48-1.66-6.57-3.84-9.27-6.53c-2.7-2.69-4.89-6.1-6.57-10.23c-1.68-4.13-2.53-9.17-2.53-15.13
		c0-6.3,1.01-11.8,3.03-16.5c2.02-4.7,4.89-8.6,8.59-11.69c3.71-3.09,8.14-5.39,13.31-6.88C345.05,0.75,350.78,0,357.07,0
		c6.4,0,12.19,0.86,17.35,2.58c5.17,1.72,9.6,4.13,13.31,7.22c3.71,3.09,6.66,6.79,8.85,11.09s3.56,9.09,4.13,14.36l-28.31,9.97
		c0.11-4.01-0.23-7.42-1.01-10.23c-0.79-2.81-1.94-5.07-3.45-6.79c-1.52-1.72-3.34-2.98-5.48-3.78c-2.13-0.8-4.38-1.2-6.74-1.2
		c-3.6,0-6.38,0.92-8.34,2.75c-1.97,1.83-2.95,4.24-2.95,7.22c0,3.09,0.81,5.59,2.44,7.48c1.63,1.89,3.79,3.47,6.49,4.73
		c2.7,1.26,5.78,2.35,9.27,3.27c3.48,0.92,7.02,1.92,10.61,3.01c3.59,1.09,7.13,2.44,10.62,4.04c3.48,1.61,6.57,3.76,9.27,6.45
		c2.7,2.69,4.86,6.08,6.49,10.14c1.63,4.07,2.44,9.09,2.44,15.04c0,11.46-3.6,20.37-10.78,26.73
		C384.09,120.43,373.7,123.61,360.11,123.61z"/>
	<path class="st0" d="M40.36,195.1h53.37v64.99H75.05l-4.34-24.76c-2.45,8.71-6.34,15.3-11.67,19.77
		c-5.34,4.47-11.9,6.71-19.68,6.71c-6,0-11.42-1.41-16.26-4.21c-4.84-2.81-8.95-6.88-12.34-12.21c-3.39-5.33-6.03-11.78-7.92-19.34
		C0.94,218.48,0,209.94,0,200.43c0-19.94,4.03-35.33,12.09-46.16c8.06-10.83,20.15-16.25,36.27-16.25c6.56,0,12.48,0.95,17.76,2.84
		c5.28,1.89,9.87,4.5,13.76,7.82c3.89,3.33,7.06,7.34,9.51,12.03c2.44,4.7,4.17,9.8,5.17,15.3l-29.52,11.52
		c-1.45-16.05-6.95-24.07-16.51-24.07c-6.45,0-11.29,3.21-14.51,9.63c-3.23,6.42-4.84,15.36-4.84,26.82
		c0,11.58,1.69,20.55,5.09,26.91c3.39,6.36,8.2,9.54,14.43,9.54c2.44,0,4.61-0.43,6.5-1.29c1.89-0.86,3.5-2.03,4.84-3.53
		c1.33-1.49,2.44-3.27,3.34-5.33c0.89-2.06,1.56-4.24,2-6.53H40.52L40.36,195.1z"/>
	<path class="st0" d="M188.78,234.64v25.44h-76.55V139.74h74.38v25.44h-44.53v22.69h40.52v25.27h-40.52v21.49H188.78z"/>
	<path class="st0" d="M237.31,195.1h53.37v64.99h-18.68l-4.34-24.76c-2.45,8.71-6.34,15.3-11.67,19.77
		c-5.34,4.47-11.9,6.71-19.68,6.71c-6,0-11.42-1.41-16.26-4.21c-4.84-2.81-8.95-6.88-12.34-12.21c-3.39-5.33-6.03-11.78-7.92-19.34
		c-1.89-7.56-2.83-16.1-2.83-25.62c0-19.94,4.03-35.33,12.09-46.16c8.06-10.83,20.15-16.25,36.27-16.25
		c6.56,0,12.48,0.95,17.76,2.84c5.28,1.89,9.87,4.5,13.76,7.82c3.89,3.33,7.06,7.34,9.51,12.03c2.44,4.7,4.17,9.8,5.17,15.3
		l-29.52,11.52c-1.45-16.05-6.95-24.07-16.51-24.07c-6.45,0-11.29,3.21-14.51,9.63c-3.23,6.42-4.84,15.36-4.84,26.82
		c0,11.58,1.69,20.55,5.09,26.91c3.39,6.36,8.2,9.54,14.43,9.54c2.44,0,4.61-0.43,6.5-1.29c1.89-0.86,3.5-2.03,4.84-3.53
		c1.33-1.49,2.44-3.27,3.34-5.33c0.89-2.06,1.56-4.24,2-6.53h-24.85L237.31,195.1z"/>
	<path class="st0" d="M368.72,239.63h-34.85l-4.5,20.46h-29.18l29.18-120.35h45.69l29.35,120.35h-31.35L368.72,239.63z
		 M363.38,214.36l-12.01-56.22l-12.17,56.22H363.38z"/>
	<path class="st0" d="M101.78,277.93v120.35H54.91l-24.26-92.32l1.98,92.32H3.91V277.93h45.55l25.75,97.65l-2.15-97.65H101.78z"/>
	<path class="st0" d="M152.45,333.29h52.82v64.99h-18.49l-4.29-24.76c-2.42,8.71-6.27,15.3-11.55,19.77
		c-5.28,4.47-11.78,6.71-19.48,6.71c-5.94,0-11.31-1.41-16.09-4.21c-4.79-2.81-8.86-6.88-12.21-12.21
		c-3.36-5.33-5.97-11.78-7.84-19.34c-1.87-7.56-2.81-16.1-2.81-25.62c0-19.94,3.99-35.33,11.97-46.16
		c7.98-10.83,19.94-16.25,35.9-16.25c6.49,0,12.35,0.95,17.58,2.84c5.22,1.89,9.76,4.5,13.62,7.82c3.85,3.33,6.99,7.34,9.41,12.03
		c2.42,4.7,4.13,9.8,5.12,15.3l-29.21,11.52c-1.43-16.04-6.88-24.07-16.34-24.07c-6.38,0-11.17,3.21-14.36,9.63
		c-3.19,6.42-4.79,15.36-4.79,26.82c0,11.58,1.68,20.55,5.03,26.91c3.36,6.36,8.11,9.54,14.28,9.54c2.42,0,4.56-0.43,6.44-1.29
		c1.87-0.86,3.47-2.03,4.79-3.53c1.32-1.49,2.42-3.27,3.3-5.33c0.88-2.06,1.54-4.24,1.98-6.53h-24.59L152.45,333.29z"/>
	<path class="st0" d="M295.87,372.84v25.44h-75.76V277.93h73.61v25.44h-44.07v22.69h40.11v25.27h-40.11v21.49H295.87z"/>
	<path class="st0" d="M403.98,277.93v120.35h-46.87l-24.26-92.32l1.98,92.32h-28.72V277.93h45.55l25.75,97.65l-2.15-97.65H403.98z"
		/>
</g>
</svg>
