<?xml version="1.0" encoding="UTF-8"?>
<svg width="191.83mm" height="128.6mm" version="1.1" viewBox="0 0 679.71007 455.6666" xmlns="http://www.w3.org/2000/svg" xmlns:cc="http://creativecommons.org/ns#" xmlns:dc="http://purl.org/dc/elements/1.1/" xmlns:rdf="http://www.w3.org/1999/02/22-rdf-syntax-ns#">
<defs>
<clipPath id="j">
<path d="m87.96 453.6h673.44v49.08h-673.44v-49.08z" clip-rule="evenodd"/>
</clipPath>
<clipPath id="i">
<path d="m87.96 453.6h673.44v49.08h-673.44v-49.08z" clip-rule="evenodd"/>
</clipPath>
<clipPath id="h">
<path d="m80.16 57.12h681.24v480.96h-681.24v-480.96z" clip-rule="evenodd"/>
</clipPath>
<clipPath id="g">
<path d="m80.16 57.12h681.24v480.96h-681.24v-480.96z" clip-rule="evenodd"/>
</clipPath>
<clipPath id="f">
<path d="m330.36 167.04h431.04v44.52h-431.04v-44.52z" clip-rule="evenodd"/>
</clipPath>
<clipPath id="e">
<path d="m330.36 167.04h431.04v44.52h-431.04v-44.52z" clip-rule="evenodd"/>
</clipPath>
<clipPath id="d">
<path d="m80.16 57.12h681.24v480.96h-681.24v-480.96z" clip-rule="evenodd"/>
</clipPath>
<clipPath id="c">
<path d="m80.16 57.12h681.24v480.96h-681.24v-480.96z" clip-rule="evenodd"/>
</clipPath>
<clipPath id="b">
<path d="m80.16 57.12h681.24v480.96h-681.24v-480.96z" clip-rule="evenodd"/>
</clipPath>
<clipPath id="a">
<path d="m80.16 441.24h653.52v52.2h-653.52v-52.2z" clip-rule="evenodd"/>
</clipPath>
</defs>
<metadata>
<rdf:RDF>
<cc:Work rdf:about="">
<dc:format>image/svg+xml</dc:format>
<dc:type rdf:resource="http://purl.org/dc/dcmitype/StillImage"/>
<dc:title/>
</cc:Work>
</rdf:RDF>
</metadata>
<rect style="fill:#fcfcfc;" width="680" height="456" x="0" y="0" />
<g transform="translate(-27.872 -121.18)">
<g transform="matrix(1.25 0 0 -1.25 -34.571 815.81)">
<path d="m318.94 551.47c51.145 0 99.718-22.469 132.84-61.457l-132.84-112.83v174.29z" fill="#2d9b93" fill-rule="evenodd"/>
<path d="m318.94 551.47c51.145 0 99.718-22.469 132.84-61.457l-132.84-112.83v174.29z" fill="none" stroke="#fff" stroke-linejoin="round" stroke-miterlimit="10" stroke-width="6.3039"/>
<path d="m451.78 490.01c43.876-51.663 53.825-124.09 25.495-185.66l-158.33 72.833 132.84 112.83z" fill="#32aca2" fill-rule="evenodd"/>
<path d="m451.78 490.01c43.876-51.663 53.825-124.09 25.495-185.66l-158.33 72.833 132.84 112.83z" fill="none" stroke="#fff" stroke-linejoin="round" stroke-miterlimit="10" stroke-width="6.3039"/>
<path d="m477.27 304.35c-5.2608-11.448-11.757-22.288-19.362-32.337l-138.97 105.17 158.33-72.833z" fill="#3ac6bc" fill-rule="evenodd"/>
<path d="m477.27 304.35c-5.2608-11.448-11.757-22.288-19.362-32.337l-138.97 105.17 158.33-72.833z" fill="none" stroke="#fff" stroke-linejoin="round" stroke-miterlimit="10" stroke-width="6.3039"/>
<path d="m457.91 272.01c-58.077-76.757-167.39-91.891-244.15-33.809-23.305 17.645-41.804 40.859-53.789 67.518l158.97 71.461 138.97-105.17z" fill="#7dd9d2" fill-rule="evenodd"/>
<path d="m457.91 272.01c-58.077-76.757-167.39-91.891-244.15-33.809-23.305 17.645-41.804 40.859-53.789 67.518l158.97 71.461 138.97-105.17z" fill="none" stroke="#fff" stroke-linejoin="round" stroke-miterlimit="10" stroke-width="6.3039"/>
<path d="m159.98 305.72c-39.469 87.788-0.29074 190.96 87.497 230.43 22.469 10.094 46.829 15.319 71.47 15.319v-174.29l-158.97-71.461z" fill="#c9efec" fill-rule="evenodd"/>
<path d="m159.98 305.72c-39.469 87.788-0.29074 190.96 87.497 230.43 22.469 10.094 46.829 15.319 71.47 15.319v-174.29l-158.97-71.461z" fill="none" stroke="#fff" stroke-linejoin="round" stroke-miterlimit="10" stroke-width="6.3039"/>
<path d="m392.12 535.36 34.835 7.714h4.7156" fill="none" stroke="#a6a6a6" stroke-linejoin="round" stroke-miterlimit="10" stroke-width=".78799"/>
<path d="m491.6 400.9 12.012-3.1801h4.7883" fill="none" stroke="#a6a6a6" stroke-linejoin="round" stroke-miterlimit="10" stroke-width=".78799"/>
<path d="m468.47 287.65 6.1421-4.9973h4.7338" fill="none" stroke="#a6a6a6" stroke-linejoin="round" stroke-miterlimit="10" stroke-width=".78799"/>
<path d="m172.6 471.84-15.446 41.441h-4.7156" fill="none" stroke="#a6a6a6" stroke-linejoin="round" stroke-miterlimit="10" stroke-width=".78799"/>
<g transform="matrix(.90859 0 0 .90859 -65.837 106.78)">
<g clip-path="url(#j)">
<text transform="matrix(1,0,0,-1,553.68,482.52)" fill="#404040" font-family="'Source Sans Pro'" font-size="16.248px">
<tspan x="0 9.9925203 14.022024 19.692575 27.751583 35.794346 41.367409 49.410168 55.09697 63.155975 72.173615 76.170624 81.662445 89.721458 95.408257 104.00345 113.02109 121.08009 129.85402 138.87166 146.93066 155.81831" y="0">Direktkredite/Spenden</tspan>
</text>
</g>
</g>
<g transform="matrix(.90859 0 0 .90859 -65.837 106.78)">
<g clip-path="url(#i)">
<text transform="matrix(1,0,0,-1,594.36,462.26)" fill="#404040" font-family="'Source Sans Pro'" font-size="16.248px">
<tspan x="0 7.3440962 15.663072 19.708824 22.990919 31.066175 34.218288 46.030582 50.027592 58.752769 62.798519 66.08062" y="0">ca. 2 Mio. €</tspan>
</text>
</g>
</g>
<g transform="matrix(.90859 0 0 .90859 -65.837 106.78)">
<g clip-path="url(#h)">
<text transform="matrix(1,0,0,-1,640.66,340.63)" fill="#404040" font-family="'Source Sans Pro'" font-size="16.248px">
<tspan x="0 8.0265121 16.767937 22.438488 31.456127 39.515137 45.153191 58.622784 62.619793 68.160362 73.684677 81.74369 85.7407" y="0">Fördermittel</tspan>
</text>
</g>
</g>
<g transform="matrix(.90859 0 0 .90859 -65.837 106.78)">
<g clip-path="url(#g)">
<text transform="matrix(1,0,0,-1,647.86,320.35)" fill="#404040" font-family="'Source Sans Pro'" font-size="16.224px">
<tspan x="0 8.0633278 12.103104 20.166431 28.229759 31.539455 43.334305 47.357857 56.151264 60.19104 63.338497" y="0">2,62 Mio. €</tspan>
</text>
</g>
</g>
<g transform="matrix(.90859 0 0 .90859 -65.837 106.78)">
<g clip-path="url(#f)">
<text transform="matrix(1,0,0,-1,605.62,193.58)" fill="#404040" font-family="'Source Sans Pro'" font-size="16.224px">
<tspan x="0 8.5500479 12.589824 20.76672 28.813824 37.688351 41.825474 49.872578 53.863682 60.661537 66.210144 75.068451 83.942978 91.990082" y="0">Eigenleistung</tspan>
</text>
</g>
</g>
<g transform="matrix(.90859 0 0 .90859 -65.837 106.78)">
<g clip-path="url(#e)">
<text transform="matrix(1,0,0,-1,608.52,173.33)" fill="#404040" font-family="'Source Sans Pro'" font-size="16.224px">
<tspan x="0 7.3981438 15.704832 19.744608 23.021856 31.085184 35.124962 43.18829 46.416862 58.211712 62.235264 70.963776 75.003555 78.313248" y="0">ca. 0,5 Mio. €</tspan>
</text>
</g>
</g>
<g transform="matrix(.90859 0 0 .90859 -65.837 106.78)">
<g clip-path="url(#d)">
<text transform="matrix(1,0,0,-1,541.32,115.92)" fill="#404040" font-family="'Source Sans Pro'" font-size="16.248px">
<tspan x="0 9.5538244 17.872801 26.760456 34.803215 39.54763 43.54464 52.432297 60.75127 69.638931 76.544327 80.606331 88.665337 94.303391 103.07731 111.96497 120.15396" y="0">Bankfinanzierung</tspan>
</text>
</g>
</g>
<g transform="matrix(.90859 0 0 .90859 -65.837 106.78)">
<g clip-path="url(#c)">
<text transform="matrix(1,0,0,-1,554.23,95.64)" fill="#404040" font-family="'Source Sans Pro'" font-size="16.224px">
<tspan x="0 7.349472 15.65616 19.695936 22.973185 31.036512 35.076286 43.090942 51.15427 54.317951 66.112801 70.103905 78.84864 82.888412 86.165665" y="0">ca. 4,78 Mio. €</tspan>
</text>
</g>
</g>
<g transform="matrix(.90859 0 0 .90859 -65.837 106.78)">
<g clip-path="url(#b)">
<text transform="matrix(1,0,0,-1,125.98,471.65)" fill="#404040" font-family="'Source Sans Pro'" font-size="16.224px">
<tspan x="0 9.3936958 14.131104 26.883167 30.046848 38.223743 46.270847 51.008255 59.704319 65.382721 74.387039 82.434143 88.063873 93.644928 101.69203 107.35421 110.2583 119.652 125.36285 133.40996 142.41428 146.40538 151.93776" y="0">KfW geförderter Kredit</tspan>
</text>
</g>
</g>
<g transform="matrix(.90859 0 0 .90859 -65.837 106.78)">
<g clip-path="url(#a)">
<text transform="matrix(1,0,0,-1,158.86,451.39)" fill="#404040" font-family="'Source Sans Pro'" font-size="16.248px">
<tspan x="0 7.3440962 15.663072 19.708824 23.023417 31.098673 35.09568 43.170937 46.323048 58.135345 62.132351 70.873779 74.919525 78.201622" y="0">ca. 4,6 Mio. €</tspan>
</text>
</g>
</g>
</g>
</g>
</svg>