<?xml version="1.0" encoding="UTF-8"?>
<svg width="600pt" version="1.1" xmlns="http://www.w3.org/2000/svg" height="400pt" viewBox="0 0 600 400" xmlns:xlink="http://www.w3.org/1999/xlink">
 <defs>
  <linearGradient id="Grad0" y1="25.55" x1="0" y2="25.55" gradientUnits="userSpaceOnUse" x2="440">
   <stop offset="0%" stop-color="#1eb296" stop-opacity="0.3"/>
   <stop offset="100%" stop-color="#1eb296" stop-opacity="1"/>
  </linearGradient>
  <path id="GlSourceSansPro-Regular50" d="M0.4 9.51 C0.4 9.51 1.12 8.79 1.68 8.21 C1.68 8.21 2.24 7.63 2.62 7.135 C2.62 7.135 3 6.64 3.2 6.225 C3.2 6.225 3.4 5.81 3.4 5.42 C3.4 5.42 3.4 4.87 3.1 4.52 C3.1 4.52 2.8 4.17 2.19 4.17 C2.19 4.17 1.79 4.17 1.45 4.395 C1.45 4.395 1.11 4.62 0.83 4.94 L0.36 4.47 C0.36 4.47 0.76 4.03 1.21 3.765 C1.21 3.765 1.66 3.5 2.29 3.5 C2.29 3.5 3.18 3.5 3.69 4.015 C3.69 4.015 4.2 4.53 4.2 5.38 C4.2 5.38 4.2 5.83 4.005 6.285 C4.005 6.285 3.81 6.74 3.465 7.225 C3.465 7.225 3.12 7.71 2.645 8.235 C2.645 8.235 2.17 8.76 1.6 9.35 C1.6 9.35 1.86 9.33 2.14 9.31 C2.14 9.31 2.42 9.29 2.67 9.29 L4.52 9.29 L4.52 10 L0.4 10 L0.4 9.51 Z"/>
  <path id="GlSourceSansPro-Regular48" d="M2.49 10.12 C2.49 10.12 1.52 10.12 0.98 9.26 C0.98 9.26 0.44 8.4 0.44 6.79 C0.44 6.79 0.44 5.18 0.98 4.34 C0.98 4.34 1.52 3.5 2.49 3.5 C2.49 3.5 3.45 3.5 3.99 4.34 C3.99 4.34 4.53 5.18 4.53 6.79 C4.53 6.79 4.53 8.4 3.99 9.26 C3.99 9.26 3.45 10.12 2.49 10.12 L2.49 10.12 Z M2.49 9.46 C2.49 9.46 2.77 9.46 2.995 9.305 C2.995 9.305 3.22 9.15 3.385 8.825 C3.385 8.825 3.55 8.5 3.64 7.995 C3.64 7.995 3.73 7.49 3.73 6.79 C3.73 6.79 3.73 6.09 3.64 5.59 C3.64 5.59 3.55 5.09 3.385 4.775 C3.385 4.775 3.22 4.46 2.995 4.31 C2.995 4.31 2.77 4.16 2.49 4.16 C2.49 4.16 2.21 4.16 1.98 4.31 C1.98 4.31 1.75 4.46 1.585 4.775 C1.585 4.775 1.42 5.09 1.33 5.59 C1.33 5.59 1.24 6.09 1.24 6.79 C1.24 6.79 1.24 8.19 1.585 8.825 C1.585 8.825 1.93 9.46 2.49 9.46 Z"/>
  <path id="GlSourceSansPro-Regular49" d="M0.79 9.32 L2.25 9.32 L2.25 4.62 L1.09 4.62 L1.09 4.09 C1.09 4.09 1.53 4.01 1.855 3.895 C1.855 3.895 2.18 3.78 2.44 3.62 L3.07 3.62 L3.07 9.32 L4.39 9.32 L4.39 10 L0.79 10 L0.79 9.32 Z"/>
  <path id="GlSourceSansPro-Regular57" d="M2.35 6.9 C2.35 6.9 2.66 6.9 3.015 6.705 C3.015 6.705 3.37 6.51 3.69 6.05 C3.69 6.05 3.61 5.11 3.25 4.63 C3.25 4.63 2.89 4.15 2.28 4.15 C2.28 4.15 2.05 4.15 1.845 4.25 C1.845 4.25 1.64 4.35 1.49 4.535 C1.49 4.535 1.34 4.72 1.255 4.98 C1.255 4.98 1.17 5.24 1.17 5.55 C1.17 5.55 1.17 6.18 1.46 6.54 C1.46 6.54 1.75 6.9 2.35 6.9 L2.35 6.9 Z M0.97 8.93 C0.97 8.93 1.17 9.16 1.445 9.3 C1.445 9.3 1.72 9.44 2.02 9.44 C2.02 9.44 2.36 9.44 2.66 9.3 C2.66 9.3 2.96 9.16 3.19 8.835 C3.19 8.835 3.42 8.51 3.56 7.99 C3.56 7.99 3.7 7.47 3.71 6.7 C3.71 6.7 3.41 7.08 3.01 7.3 C3.01 7.3 2.61 7.52 2.21 7.52 C2.21 7.52 1.38 7.52 0.89 7.03 C0.89 7.03 0.4 6.54 0.4 5.55 C0.4 5.55 0.4 5.09 0.55 4.715 C0.55 4.715 0.7 4.34 0.955 4.07 C0.955 4.07 1.21 3.8 1.555 3.65 C1.555 3.65 1.9 3.5 2.28 3.5 C2.28 3.5 2.75 3.5 3.155 3.69 C3.155 3.69 3.56 3.88 3.855 4.265 C3.855 4.265 4.15 4.65 4.315 5.225 C4.315 5.225 4.48 5.8 4.48 6.57 C4.48 6.57 4.48 7.53 4.28 8.205 C4.28 8.205 4.08 8.88 3.74 9.305 C3.74 9.305 3.4 9.73 2.965 9.925 C2.965 9.925 2.53 10.12 2.05 10.12 C2.05 10.12 1.54 10.12 1.155 9.93 C1.155 9.93 0.77 9.74 0.51 9.45 L0.97 8.93 Z"/>
  <path id="GlSourceSansPro-Regular40" d="M2.14 11.76 C2.14 11.76 1.52 10.76 1.17 9.65 C1.17 9.65 0.82 8.54 0.82 7.22 C0.82 7.22 0.82 5.9 1.17 4.795 C1.17 4.795 1.52 3.69 2.14 2.68 L2.65 2.92 C2.65 2.92 2.07 3.88 1.785 4.975 C1.785 4.975 1.5 6.07 1.5 7.22 C1.5 7.22 1.5 8.37 1.785 9.465 C1.785 9.465 2.07 10.56 2.65 11.52 L2.14 11.76 Z"/>
  <path id="GlSourceSansPro-Regular69" d="M0.9 3.44 L4.68 3.44 L4.68 4.14 L1.73 4.14 L1.73 6.2 L4.22 6.2 L4.22 6.91 L1.73 6.91 L1.73 9.29 L4.78 9.29 L4.78 10 L0.9 10 L0.9 3.44 Z"/>
  <path id="GlSourceSansPro-Regular105" d="M1.24 4.14 C1.24 4.14 1 4.14 0.835 3.99 C0.835 3.99 0.67 3.84 0.67 3.61 C0.67 3.61 0.67 3.37 0.835 3.225 C0.835 3.225 1 3.08 1.24 3.08 C1.24 3.08 1.48 3.08 1.645 3.225 C1.645 3.225 1.81 3.37 1.81 3.61 C1.81 3.61 1.81 3.84 1.645 3.99 C1.645 3.99 1.48 4.14 1.24 4.14 L1.24 4.14 Z M0.82 5.14 L1.64 5.14 L1.64 10 L0.82 10 L0.82 5.14 Z"/>
  <path id="GlSourceSansPro-Regular110" d="M0.82 5.14 L1.5 5.14 L1.57 5.84 L1.6 5.84 C1.6 5.84 1.95 5.49 2.335 5.255 C2.335 5.255 2.72 5.02 3.23 5.02 C3.23 5.02 4 5.02 4.355 5.5 C4.355 5.5 4.71 5.98 4.71 6.92 L4.71 10 L3.89 10 L3.89 7.03 C3.89 7.03 3.89 6.34 3.67 6.035 C3.67 6.035 3.45 5.73 2.97 5.73 C2.97 5.73 2.59 5.73 2.3 5.92 C2.3 5.92 2.01 6.11 1.64 6.48 L1.64 10 L0.82 10 L0.82 5.14 Z"/>
  <path id="GlSourceSansPro-Regular122" d="M0.31 9.56 L2.87 5.81 L0.59 5.81 L0.59 5.14 L3.91 5.14 L3.91 5.58 L1.35 9.33 L3.99 9.33 L3.99 10 L0.31 10 L0.31 9.56 Z"/>
  <path id="GlSourceSansPro-Regular117" d="M0.75 5.14 L1.58 5.14 L1.58 8.11 C1.58 8.11 1.58 8.8 1.795 9.105 C1.795 9.105 2.01 9.41 2.49 9.41 C2.49 9.41 2.87 9.41 3.16 9.215 C3.16 9.215 3.45 9.02 3.8 8.59 L3.8 5.14 L4.62 5.14 L4.62 10 L3.94 10 L3.87 9.24 L3.84 9.24 C3.84 9.24 3.5 9.64 3.125 9.88 C3.125 9.88 2.75 10.12 2.24 10.12 C2.24 10.12 1.46 10.12 1.105 9.64 C1.105 9.64 0.75 9.16 0.75 8.22 L0.75 5.14 Z"/>
  <path id="GlSourceSansPro-Regular103" d="M1.17 10.82 C1.17 10.82 1.17 11.21 1.545 11.44 C1.545 11.44 1.92 11.67 2.58 11.67 C2.58 11.67 2.93 11.67 3.215 11.585 C3.215 11.585 3.5 11.5 3.7 11.365 C3.7 11.365 3.9 11.23 4.01 11.05 C4.01 11.05 4.12 10.87 4.12 10.68 C4.12 10.68 4.12 10.34 3.87 10.21 C3.87 10.21 3.62 10.08 3.14 10.08 L2.3 10.08 C2.3 10.08 2.16 10.08 1.995 10.065 C1.995 10.065 1.83 10.05 1.67 10 C1.67 10 1.41 10.19 1.29 10.4 C1.29 10.4 1.17 10.61 1.17 10.82 L1.17 10.82 Z M0.45 10.93 C0.45 10.93 0.45 10.62 0.64 10.34 C0.64 10.34 0.83 10.06 1.16 9.83 L1.16 9.79 C1.16 9.79 0.98 9.68 0.855 9.485 C0.855 9.485 0.73 9.29 0.73 9 C0.73 9 0.73 8.69 0.9 8.46 C0.9 8.46 1.07 8.23 1.26 8.1 L1.26 8.06 C1.26 8.06 1.02 7.86 0.825 7.525 C0.825 7.525 0.63 7.19 0.63 6.75 C0.63 6.75 0.63 6.35 0.775 6.03 C0.775 6.03 0.92 5.71 1.17 5.485 C1.17 5.485 1.42 5.26 1.755 5.14 C1.755 5.14 2.09 5.02 2.46 5.02 C2.46 5.02 2.66 5.02 2.835 5.055 C2.835 5.055 3.01 5.09 3.15 5.14 L4.84 5.14 L4.84 5.77 L3.84 5.77 C3.84 5.77 4.01 5.94 4.125 6.2 C4.125 6.2 4.24 6.46 4.24 6.77 C4.24 6.77 4.24 7.16 4.1 7.475 C4.1 7.475 3.96 7.79 3.72 8.005 C3.72 8.005 3.48 8.22 3.155 8.34 C3.155 8.34 2.83 8.46 2.46 8.46 C2.46 8.46 2.28 8.46 2.09 8.415 C2.09 8.415 1.9 8.37 1.73 8.29 C1.73 8.29 1.6 8.4 1.51 8.535 C1.51 8.535 1.42 8.67 1.42 8.87 C1.42 8.87 1.42 9.1 1.6 9.25 C1.6 9.25 1.78 9.4 2.28 9.4 L3.22 9.4 C3.22 9.4 4.07 9.4 4.495 9.675 C4.495 9.675 4.92 9.95 4.92 10.56 C4.92 10.56 4.92 10.9 4.75 11.205 C4.75 11.205 4.58 11.51 4.26 11.74 C4.26 11.74 3.94 11.97 3.485 12.105 C3.485 12.105 3.03 12.24 2.46 12.24 C2.46 12.24 2.01 12.24 1.64 12.155 C1.64 12.155 1.27 12.07 1.005 11.9 C1.005 11.9 0.74 11.73 0.595 11.49 C0.595 11.49 0.45 11.25 0.45 10.93 L0.45 10.93 Z M2.46 7.91 C2.46 7.91 2.67 7.91 2.855 7.83 C2.855 7.83 3.04 7.75 3.185 7.6 C3.185 7.6 3.33 7.45 3.41 7.235 C3.41 7.235 3.49 7.02 3.49 6.75 C3.49 6.75 3.49 6.21 3.19 5.915 C3.19 5.915 2.89 5.62 2.46 5.62 C2.46 5.62 2.03 5.62 1.73 5.915 C1.73 5.915 1.43 6.21 1.43 6.75 C1.43 6.75 1.43 7.02 1.51 7.235 C1.51 7.235 1.59 7.45 1.735 7.6 C1.735 7.6 1.88 7.75 2.065 7.83 C2.065 7.83 2.25 7.91 2.46 7.91 Z"/>
  <path id="GlSourceSansPro-Regular41" d="M0.38 11.52 C0.38 11.52 0.96 10.56 1.245 9.465 C1.245 9.465 1.53 8.37 1.53 7.22 C1.53 7.22 1.53 6.07 1.245 4.975 C1.245 4.975 0.96 3.88 0.38 2.92 L0.89 2.68 C0.89 2.68 1.51 3.69 1.86 4.795 C1.86 4.795 2.21 5.9 2.21 7.22 C2.21 7.22 2.21 8.54 1.86 9.65 C1.86 9.65 1.51 10.76 0.89 11.76 L0.38 11.52 Z"/>
  <path id="GlSourceSansPro-Regular51" d="M0.68 8.68 C0.68 8.68 0.97 8.98 1.355 9.21 C1.355 9.21 1.74 9.44 2.31 9.44 C2.31 9.44 2.89 9.44 3.26 9.125 C3.26 9.125 3.63 8.81 3.63 8.27 C3.63 8.27 3.63 7.99 3.525 7.755 C3.525 7.755 3.42 7.52 3.18 7.35 C3.18 7.35 2.94 7.18 2.55 7.09 C2.55 7.09 2.16 7 1.59 7 L1.59 6.37 C1.59 6.37 2.1 6.37 2.445 6.28 C2.445 6.28 2.79 6.19 3.005 6.03 C3.005 6.03 3.22 5.87 3.31 5.65 C3.31 5.65 3.4 5.43 3.4 5.18 C3.4 5.18 3.4 4.71 3.105 4.44 C3.105 4.44 2.81 4.17 2.3 4.17 C2.3 4.17 1.9 4.17 1.565 4.35 C1.565 4.35 1.23 4.53 0.94 4.82 L0.5 4.3 C0.5 4.3 0.87 3.95 1.315 3.725 C1.315 3.725 1.76 3.5 2.33 3.5 C2.33 3.5 2.75 3.5 3.1 3.61 C3.1 3.61 3.45 3.72 3.705 3.925 C3.705 3.925 3.96 4.13 4.1 4.43 C4.1 4.43 4.24 4.73 4.24 5.12 C4.24 5.12 4.24 5.7 3.92 6.07 C3.92 6.07 3.6 6.44 3.08 6.64 L3.08 6.68 C3.08 6.68 3.37 6.75 3.62 6.885 C3.62 6.885 3.87 7.02 4.06 7.225 C4.06 7.225 4.25 7.43 4.355 7.7 C4.355 7.7 4.46 7.97 4.46 8.3 C4.46 8.3 4.46 8.72 4.295 9.06 C4.295 9.06 4.13 9.4 3.845 9.635 C3.845 9.635 3.56 9.87 3.18 9.995 C3.18 9.995 2.8 10.12 2.36 10.12 C2.36 10.12 1.98 10.12 1.665 10.045 C1.665 10.045 1.35 9.97 1.09 9.845 C1.09 9.845 0.83 9.72 0.625 9.56 C0.625 9.56 0.42 9.4 0.26 9.22 L0.68 8.68 Z"/>
  <path id="GlSourceSansPro-Regular53" d="M0.65 8.71 C0.65 8.71 0.93 9 1.315 9.22 C1.315 9.22 1.7 9.44 2.26 9.44 C2.26 9.44 2.55 9.44 2.805 9.335 C2.805 9.335 3.06 9.23 3.25 9.04 C3.25 9.04 3.44 8.85 3.55 8.58 C3.55 8.58 3.66 8.31 3.66 7.98 C3.66 7.98 3.66 7.32 3.29 6.95 C3.29 6.95 2.92 6.58 2.3 6.58 C2.3 6.58 1.97 6.58 1.735 6.68 C1.735 6.68 1.5 6.78 1.21 6.97 L0.77 6.69 L0.98 3.62 L4.17 3.62 L4.17 4.33 L1.7 4.33 L1.53 6.22 C1.53 6.22 1.76 6.1 1.99 6.03 C1.99 6.03 2.22 5.96 2.51 5.96 C2.51 5.96 2.92 5.96 3.28 6.08 C3.28 6.08 3.64 6.2 3.91 6.445 C3.91 6.445 4.18 6.69 4.335 7.065 C4.335 7.065 4.49 7.44 4.49 7.96 C4.49 7.96 4.49 8.48 4.31 8.88 C4.31 8.88 4.13 9.28 3.83 9.555 C3.83 9.555 3.53 9.83 3.145 9.975 C3.145 9.975 2.76 10.12 2.34 10.12 C2.34 10.12 1.96 10.12 1.645 10.045 C1.645 10.045 1.33 9.97 1.075 9.85 C1.075 9.85 0.82 9.73 0.615 9.575 C0.615 9.575 0.41 9.42 0.25 9.25 L0.65 8.71 Z"/>
  <path id="GlAbyssinicaSIL46" d="M2.12891 9.22844 C2.12891 9.22844 2.12891 9.38969 2.07031 9.53125 C2.07031 9.53125 2.01172 9.67281 1.90672 9.77547 C1.90672 9.77547 1.80172 9.87797 1.6625 9.93906 C1.6625 9.93906 1.52344 10 1.36234 10 C1.36234 10 1.20125 10 1.05953 9.93906 C1.05953 9.93906 0.917969 9.87797 0.812969 9.77547 C0.812969 9.77547 0.707969 9.67281 0.649375 9.53125 C0.649375 9.53125 0.590781 9.38969 0.590781 9.22844 C0.590781 9.22844 0.590781 9.06734 0.649375 8.92828 C0.649375 8.92828 0.707969 8.78906 0.812969 8.68406 C0.812969 8.68406 0.917969 8.57906 1.05953 8.52047 C1.05953 8.52047 1.20125 8.46187 1.36234 8.46187 C1.36234 8.46187 1.52344 8.46187 1.6625 8.52047 C1.6625 8.52047 1.80172 8.57906 1.90672 8.68406 C1.90672 8.68406 2.01172 8.78906 2.07031 8.92828 C2.07031 8.92828 2.12891 9.06734 2.12891 9.22844 Z"/>
  <linearGradient id="Grad1" y1="42.5" x1="0" y2="42.5" gradientUnits="userSpaceOnUse" x2="440">
   <stop offset="0%" stop-color="#1eb296" stop-opacity="1"/>
   <stop offset="99.7602%" stop-color="#1eb296" stop-opacity="0.02"/>
  </linearGradient>
  <linearGradient id="Grad2" y1="33.2162" x1="0" y2="33.2162" gradientUnits="userSpaceOnUse" x2="440">
   <stop offset="0%" stop-color="#1eb296" stop-opacity="1"/>
   <stop offset="99.7602%" stop-color="#1eb296" stop-opacity="0"/>
  </linearGradient>
  <linearGradient id="Grad3" y1="24.8121" x1="0" y2="24.8121" gradientUnits="userSpaceOnUse" x2="420">
   <stop offset="0%" stop-color="#1eb296" stop-opacity="1"/>
   <stop offset="99.7602%" stop-color="#1eb296" stop-opacity="0"/>
  </linearGradient>
  <path id="GlSourceSansPro-Regular75" d="M0.9 3.44 L1.73 3.44 L1.73 6.73 L1.76 6.73 L4.49 3.44 L5.43 3.44 L3.38 5.94 L5.75 10 L4.82 10 L2.86 6.59 L1.73 7.92 L1.73 10 L0.9 10 L0.9 3.44 Z"/>
  <path id="GlSourceSansPro-Regular102" d="M3.01 3.55 C3.01 3.55 2.74 3.43 2.46 3.43 C2.46 3.43 1.78 3.43 1.78 4.37 L1.78 5.14 L2.81 5.14 L2.81 5.81 L1.78 5.81 L1.78 10 L0.96 10 L0.96 5.81 L0.3 5.81 L0.3 5.19 L0.96 5.14 L0.96 4.37 C0.96 4.37 0.96 3.62 1.305 3.19 C1.305 3.19 1.65 2.76 2.38 2.76 C2.38 2.76 2.61 2.76 2.815 2.805 C2.815 2.805 3.02 2.85 3.19 2.92 L3.01 3.55 Z"/>
  <path id="GlSourceSansPro-Regular87" d="M0.23 3.44 L1.09 3.44 L1.78 7.01 C1.78 7.01 1.87 7.55 1.97 8.07 C1.97 8.07 2.07 8.59 2.16 9.13 L2.2 9.13 C2.2 9.13 2.31 8.59 2.43 8.065 C2.43 8.065 2.55 7.54 2.66 7.01 L3.57 3.44 L4.33 3.44 L5.24 7.01 C5.24 7.01 5.36 7.53 5.48 8.06 C5.48 8.06 5.6 8.59 5.72 9.13 L5.76 9.13 C5.76 9.13 5.85 8.59 5.94 8.065 C5.94 8.065 6.03 7.54 6.13 7.01 L6.82 3.44 L7.62 3.44 L6.26 10 L5.26 10 L4.27 6.05 C4.27 6.05 4.18 5.67 4.105 5.305 C4.105 5.305 4.03 4.94 3.95 4.56 L3.91 4.56 C3.91 4.56 3.83 4.94 3.745 5.305 C3.745 5.305 3.66 5.67 3.58 6.05 L2.61 10 L1.62 10 L0.23 3.44 Z"/>
  <path id="GlSourceSansPro-Regular45" d="M0.41 7.18 L2.71 7.18 L2.71 7.81 L0.41 7.81 L0.41 7.18 Z"/>
  <path id="GlSourceSansPro-Regular114" d="M0.82 5.14 L1.5 5.14 L1.57 6.02 L1.6 6.02 C1.6 6.02 1.85 5.56 2.205 5.29 C2.205 5.29 2.56 5.02 2.98 5.02 C2.98 5.02 3.27 5.02 3.5 5.12 L3.34 5.84 C3.34 5.84 3.22 5.8 3.12 5.78 C3.12 5.78 3.02 5.76 2.87 5.76 C2.87 5.76 2.56 5.76 2.225 6.01 C2.225 6.01 1.89 6.26 1.64 6.88 L1.64 10 L0.82 10 L0.82 5.14 Z"/>
  <path id="GlSourceSansPro-Regular101" d="M0.46 7.58 C0.46 7.58 0.46 6.98 0.645 6.505 C0.645 6.505 0.83 6.03 1.135 5.7 C1.135 5.7 1.44 5.37 1.83 5.195 C1.83 5.195 2.22 5.02 2.64 5.02 C2.64 5.02 3.1 5.02 3.465 5.18 C3.465 5.18 3.83 5.34 4.075 5.64 C4.075 5.64 4.32 5.94 4.45 6.36 C4.45 6.36 4.58 6.78 4.58 7.3 C4.58 7.3 4.58 7.57 4.55 7.75 L1.27 7.75 C1.27 7.75 1.32 8.54 1.755 9 C1.755 9 2.19 9.46 2.89 9.46 C2.89 9.46 3.24 9.46 3.535 9.355 C3.535 9.355 3.83 9.25 4.1 9.08 L4.39 9.62 C4.39 9.62 4.07 9.82 3.68 9.97 C3.68 9.97 3.29 10.12 2.79 10.12 C2.79 10.12 2.3 10.12 1.875 9.945 C1.875 9.945 1.45 9.77 1.135 9.445 C1.135 9.445 0.82 9.12 0.64 8.65 C0.64 8.65 0.46 8.18 0.46 7.58 L0.46 7.58 Z M3.86 7.21 C3.86 7.21 3.86 6.46 3.545 6.065 C3.545 6.065 3.23 5.67 2.66 5.67 C2.66 5.67 2.4 5.67 2.165 5.775 C2.165 5.775 1.93 5.88 1.74 6.075 C1.74 6.075 1.55 6.27 1.425 6.555 C1.425 6.555 1.3 6.84 1.26 7.21 L3.86 7.21 Z"/>
  <path id="GlSourceSansPro-Regular100" d="M0.47 7.58 C0.47 7.58 0.47 6.99 0.645 6.515 C0.645 6.515 0.82 6.04 1.11 5.71 C1.11 5.71 1.4 5.38 1.78 5.2 C1.78 5.2 2.16 5.02 2.58 5.02 C2.58 5.02 3 5.02 3.31 5.17 C3.31 5.17 3.62 5.32 3.94 5.58 L3.9 4.75 L3.9 2.88 L4.73 2.88 L4.73 10 L4.05 10 L3.98 9.43 L3.95 9.43 C3.95 9.43 3.66 9.71 3.285 9.915 C3.285 9.915 2.91 10.12 2.48 10.12 C2.48 10.12 1.56 10.12 1.015 9.46 C1.015 9.46 0.47 8.8 0.47 7.58 L0.47 7.58 Z M1.32 7.57 C1.32 7.57 1.32 8.45 1.67 8.94 C1.67 8.94 2.02 9.43 2.66 9.43 C2.66 9.43 3 9.43 3.3 9.265 C3.3 9.265 3.6 9.1 3.9 8.76 L3.9 6.22 C3.9 6.22 3.59 5.94 3.305 5.825 C3.305 5.825 3.02 5.71 2.72 5.71 C2.72 5.71 2.43 5.71 2.175 5.845 C2.175 5.845 1.92 5.98 1.73 6.225 C1.73 6.225 1.54 6.47 1.43 6.81 C1.43 6.81 1.32 7.15 1.32 7.57 Z"/>
  <path id="GlSourceSansPro-Regular116" d="M0.96 5.81 L0.24 5.81 L0.24 5.19 L1 5.14 L1.1 3.78 L1.79 3.78 L1.79 5.14 L3.1 5.14 L3.1 5.81 L1.79 5.81 L1.79 8.51 C1.79 8.51 1.79 8.96 1.955 9.205 C1.955 9.205 2.12 9.45 2.54 9.45 C2.54 9.45 2.67 9.45 2.82 9.41 C2.82 9.41 2.97 9.37 3.09 9.32 L3.25 9.94 C3.25 9.94 3.05 10.01 2.815 10.065 C2.815 10.065 2.58 10.12 2.35 10.12 C2.35 10.12 1.96 10.12 1.695 10 C1.695 10 1.43 9.88 1.265 9.67 C1.265 9.67 1.1 9.46 1.03 9.16 C1.03 9.16 0.96 8.86 0.96 8.5 L0.96 5.81 Z"/>
  <path id="GlSourceSansPro-Regular97" d="M0.58 8.74 C0.58 8.74 0.58 7.94 1.295 7.515 C1.295 7.515 2.01 7.09 3.57 6.92 C3.57 6.92 3.57 6.69 3.525 6.47 C3.525 6.47 3.48 6.25 3.365 6.08 C3.365 6.08 3.25 5.91 3.06 5.805 C3.06 5.805 2.87 5.7 2.57 5.7 C2.57 5.7 2.14 5.7 1.775 5.86 C1.775 5.86 1.41 6.02 1.12 6.22 L0.79 5.65 C0.79 5.65 1.13 5.43 1.62 5.225 C1.62 5.225 2.11 5.02 2.7 5.02 C2.7 5.02 3.59 5.02 3.99 5.565 C3.99 5.565 4.39 6.11 4.39 7.02 L4.39 10 L3.71 10 L3.64 9.42 L3.62 9.42 C3.62 9.42 3.27 9.71 2.865 9.915 C2.865 9.915 2.46 10.12 2.01 10.12 C2.01 10.12 1.39 10.12 0.985 9.76 C0.985 9.76 0.58 9.4 0.58 8.74 L0.58 8.74 Z M1.39 8.68 C1.39 8.68 1.39 9.1 1.635 9.28 C1.635 9.28 1.88 9.46 2.24 9.46 C2.24 9.46 2.59 9.46 2.905 9.295 C2.905 9.295 3.22 9.13 3.57 8.81 L3.57 7.46 C3.57 7.46 2.96 7.54 2.54 7.65 C2.54 7.65 2.12 7.76 1.865 7.91 C1.865 7.91 1.61 8.06 1.5 8.255 C1.5 8.255 1.39 8.45 1.39 8.68 Z"/>
  <path id="GlSourceSansPro-Regular104" d="M0.82 2.88 L1.64 2.88 L1.64 4.82 L1.61 5.82 C1.61 5.82 1.96 5.49 2.34 5.255 C2.34 5.255 2.72 5.02 3.23 5.02 C3.23 5.02 4 5.02 4.355 5.5 C4.355 5.5 4.71 5.98 4.71 6.92 L4.71 10 L3.89 10 L3.89 7.03 C3.89 7.03 3.89 6.34 3.67 6.035 C3.67 6.035 3.45 5.73 2.97 5.73 C2.97 5.73 2.59 5.73 2.3 5.92 C2.3 5.92 2.01 6.11 1.64 6.48 L1.64 10 L0.82 10 L0.82 2.88 Z"/>
  <path id="GlSourceSansPro-Regular109" d="M0.82 5.14 L1.5 5.14 L1.57 5.84 L1.6 5.84 C1.6 5.84 1.92 5.49 2.295 5.255 C2.295 5.255 2.67 5.02 3.11 5.02 C3.11 5.02 3.67 5.02 3.985 5.265 C3.985 5.265 4.3 5.51 4.45 5.95 C4.45 5.95 4.83 5.53 5.215 5.275 C5.215 5.275 5.6 5.02 6.05 5.02 C6.05 5.02 6.8 5.02 7.165 5.5 C7.165 5.5 7.53 5.98 7.53 6.92 L7.53 10 L6.71 10 L6.71 7.03 C6.71 7.03 6.71 6.34 6.49 6.035 C6.49 6.035 6.27 5.73 5.81 5.73 C5.81 5.73 5.26 5.73 4.59 6.48 L4.59 10 L3.77 10 L3.77 7.03 C3.77 7.03 3.77 6.34 3.55 6.035 C3.55 6.035 3.33 5.73 2.86 5.73 C2.86 5.73 2.31 5.73 1.64 6.48 L1.64 10 L0.82 10 L0.82 5.14 Z"/>
  <path id="GlSourceSansPro-Regular66" d="M0.9 3.44 L2.85 3.44 C2.85 3.44 3.35 3.44 3.765 3.53 C3.765 3.53 4.18 3.62 4.475 3.81 C4.475 3.81 4.77 4 4.935 4.305 C4.935 4.305 5.1 4.61 5.1 5.04 C5.1 5.04 5.1 5.53 4.82 5.925 C4.82 5.925 4.54 6.32 3.96 6.47 L3.96 6.51 C3.96 6.51 4.68 6.62 5.08 7.01 C5.08 7.01 5.48 7.4 5.48 8.08 C5.48 8.08 5.48 8.56 5.3 8.92 C5.3 8.92 5.12 9.28 4.79 9.52 C4.79 9.52 4.46 9.76 4 9.88 C4 9.88 3.54 10 2.99 10 L0.9 10 L0.9 3.44 L0.9 3.44 Z M2.7 6.24 C2.7 6.24 3.55 6.24 3.915 5.95 C3.915 5.95 4.28 5.66 4.28 5.11 C4.28 5.11 4.28 4.57 3.895 4.335 C3.895 4.335 3.51 4.1 2.74 4.1 L1.73 4.1 L1.73 6.24 L2.7 6.24 L2.7 6.24 Z M2.87 9.34 C2.87 9.34 3.72 9.34 4.19 9.025 C4.19 9.025 4.66 8.71 4.66 8.04 C4.66 8.04 4.66 7.43 4.2 7.145 C4.2 7.145 3.74 6.86 2.87 6.86 L1.73 6.86 L1.73 9.34 L2.87 9.34 Z"/>
  <path id="GlSourceSansPro-Regular107" d="M0.82 2.88 L1.63 2.88 L1.63 7.7 L1.66 7.7 L3.73 5.14 L4.64 5.14 L3.01 7.09 L4.86 10 L3.96 10 L2.54 7.66 L1.63 8.72 L1.63 10 L0.82 10 L0.82 2.88 Z"/>
  <path id="GlSourceSansPro-Regular68" d="M0.9 3.44 L2.54 3.44 C2.54 3.44 4.06 3.44 4.85 4.28 C4.85 4.28 5.64 5.12 5.64 6.69 C5.64 6.69 5.64 7.47 5.44 8.085 C5.44 8.085 5.24 8.7 4.85 9.125 C4.85 9.125 4.46 9.55 3.89 9.775 C3.89 9.775 3.32 10 2.58 10 L0.9 10 L0.9 3.44 L0.9 3.44 Z M2.48 9.32 C2.48 9.32 3.63 9.32 4.205 8.63 C4.205 8.63 4.78 7.94 4.78 6.69 C4.78 6.69 4.78 5.44 4.205 4.78 C4.205 4.78 3.63 4.12 2.48 4.12 L1.73 4.12 L1.73 9.32 L2.48 9.32 Z"/>
  <path id="GlSourceSansPro-Regular119" d="M0.24 5.14 L1.08 5.14 L1.8 7.95 C1.8 7.95 1.88 8.3 1.95 8.63 C1.95 8.63 2.02 8.96 2.09 9.3 L2.13 9.3 C2.13 9.3 2.21 8.96 2.29 8.625 C2.29 8.625 2.37 8.29 2.46 7.95 L3.21 5.14 L4.01 5.14 L4.77 7.95 C4.77 7.95 4.86 8.3 4.945 8.63 C4.945 8.63 5.03 8.96 5.11 9.3 L5.15 9.3 C5.15 9.3 5.23 8.96 5.3 8.63 C5.3 8.63 5.37 8.3 5.45 7.95 L6.16 5.14 L6.94 5.14 L5.64 10 L4.64 10 L3.94 7.39 C3.94 7.39 3.85 7.04 3.775 6.7 C3.775 6.7 3.7 6.36 3.61 5.99 L3.57 5.99 C3.57 5.99 3.49 6.36 3.41 6.705 C3.41 6.705 3.33 7.05 3.23 7.4 L2.55 10 L1.59 10 L0.24 5.14 Z"/>
  <path id="GlSourceSansPro-Regular98" d="M0.82 2.88 L1.64 2.88 L1.64 4.82 L1.62 5.7 C1.62 5.7 1.95 5.41 2.34 5.215 C2.34 5.215 2.73 5.02 3.14 5.02 C3.14 5.02 3.61 5.02 3.97 5.195 C3.97 5.195 4.33 5.37 4.575 5.695 C4.575 5.695 4.82 6.02 4.945 6.475 C4.945 6.475 5.07 6.93 5.07 7.49 C5.07 7.49 5.07 8.11 4.9 8.6 C4.9 8.6 4.73 9.09 4.44 9.43 C4.44 9.43 4.15 9.77 3.77 9.945 C3.77 9.945 3.39 10.12 2.97 10.12 C2.97 10.12 2.63 10.12 2.265 9.965 C2.265 9.965 1.9 9.81 1.58 9.52 L1.55 9.52 L1.48 10 L0.82 10 L0.82 2.88 L0.82 2.88 Z M1.64 8.92 C1.64 8.92 1.96 9.2 2.275 9.315 C2.275 9.315 2.59 9.43 2.83 9.43 C2.83 9.43 3.13 9.43 3.385 9.295 C3.385 9.295 3.64 9.16 3.825 8.915 C3.825 8.915 4.01 8.67 4.115 8.31 C4.115 8.31 4.22 7.95 4.22 7.5 C4.22 7.5 4.22 7.1 4.15 6.77 C4.15 6.77 4.08 6.44 3.925 6.205 C3.925 6.205 3.77 5.97 3.525 5.84 C3.525 5.84 3.28 5.71 2.94 5.71 C2.94 5.71 2.35 5.71 1.64 6.37 L1.64 8.92 Z"/>
  <path id="GlSourceSansPro-Regular252" d="M0.75 5.14 L1.58 5.14 L1.58 8.11 C1.58 8.11 1.58 8.8 1.795 9.105 C1.795 9.105 2.01 9.41 2.49 9.41 C2.49 9.41 2.87 9.41 3.16 9.215 C3.16 9.215 3.45 9.02 3.8 8.59 L3.8 5.14 L4.62 5.14 L4.62 10 L3.94 10 L3.87 9.24 L3.84 9.24 C3.84 9.24 3.5 9.64 3.125 9.88 C3.125 9.88 2.75 10.12 2.24 10.12 C2.24 10.12 1.46 10.12 1.105 9.64 C1.105 9.64 0.75 9.16 0.75 8.22 L0.75 5.14 L0.75 5.14 Z M1.86 4.12 C1.86 4.12 1.64 4.12 1.505 3.98 C1.505 3.98 1.37 3.84 1.37 3.63 C1.37 3.63 1.37 3.42 1.505 3.28 C1.505 3.28 1.64 3.14 1.86 3.14 C1.86 3.14 2.07 3.14 2.21 3.28 C2.21 3.28 2.35 3.42 2.35 3.63 C2.35 3.63 2.35 3.84 2.21 3.98 C2.21 3.98 2.07 4.12 1.86 4.12 L1.86 4.12 Z M3.58 4.12 C3.58 4.12 3.37 4.12 3.23 3.98 C3.23 3.98 3.09 3.84 3.09 3.63 C3.09 3.63 3.09 3.42 3.23 3.28 C3.23 3.28 3.37 3.14 3.58 3.14 C3.58 3.14 3.8 3.14 3.935 3.28 C3.935 3.28 4.07 3.42 4.07 3.63 C4.07 3.63 4.07 3.84 3.935 3.98 C3.935 3.98 3.8 4.12 3.58 4.12 Z"/>
  <path id="GlSourceSansPro-Regular99" d="M0.46 7.58 C0.46 7.58 0.46 6.97 0.65 6.495 C0.65 6.495 0.84 6.02 1.16 5.69 C1.16 5.69 1.48 5.36 1.905 5.19 C1.905 5.19 2.33 5.02 2.8 5.02 C2.8 5.02 3.28 5.02 3.625 5.195 C3.625 5.195 3.97 5.37 4.22 5.6 L3.81 6.13 C3.81 6.13 3.59 5.94 3.355 5.82 C3.355 5.82 3.12 5.7 2.83 5.7 C2.83 5.7 2.5 5.7 2.22 5.835 C2.22 5.835 1.94 5.97 1.74 6.22 C1.74 6.22 1.54 6.47 1.425 6.815 C1.425 6.815 1.31 7.16 1.31 7.58 C1.31 7.58 1.31 8 1.42 8.34 C1.42 8.34 1.53 8.68 1.725 8.925 C1.725 8.925 1.92 9.17 2.2 9.305 C2.2 9.305 2.48 9.44 2.81 9.44 C2.81 9.44 3.16 9.44 3.445 9.295 C3.445 9.295 3.73 9.15 3.95 8.95 L4.32 9.49 C4.32 9.49 3.99 9.78 3.585 9.95 C3.585 9.95 3.18 10.12 2.74 10.12 C2.74 10.12 2.26 10.12 1.84 9.95 C1.84 9.95 1.42 9.78 1.115 9.455 C1.115 9.455 0.81 9.13 0.635 8.655 C0.635 8.655 0.46 8.18 0.46 7.58 Z"/>
  <path id="GlSourceSansPro-Regular108" d="M0.82 2.88 L1.64 2.88 L1.64 9.08 C1.64 9.08 1.64 9.28 1.71 9.36 C1.71 9.36 1.78 9.44 1.87 9.44 C1.87 9.44 1.91 9.44 1.945 9.44 C1.945 9.44 1.98 9.44 2.05 9.42 L2.16 10.04 C2.16 10.04 2.08 10.08 1.97 10.1 C1.97 10.1 1.86 10.12 1.69 10.12 C1.69 10.12 1.22 10.12 1.02 9.84 C1.02 9.84 0.82 9.56 0.82 9.02 L0.82 2.88 Z"/>
  <path id="GlSourceSansPro-Regular90" d="M0.45 9.5 L3.9 4.14 L0.76 4.14 L0.76 3.44 L4.94 3.44 L4.94 3.93 L1.48 9.29 L4.97 9.29 L4.97 10 L0.45 10 L0.45 9.5 Z"/>
  <linearGradient id="Grad4" y1="25" x1="0" y2="25" gradientUnits="userSpaceOnUse" x2="108">
   <stop offset="0%" stop-color="#1eb296" stop-opacity="1"/>
   <stop offset="100%" stop-color="#1eb296" stop-opacity="0"/>
  </linearGradient>
  <path id="GlSourceSansPro-Regular115" d="M0.69 8.9 C0.69 8.9 1.01 9.16 1.345 9.32 C1.345 9.32 1.68 9.48 2.12 9.48 C2.12 9.48 2.6 9.48 2.84 9.26 C2.84 9.26 3.08 9.04 3.08 8.72 C3.08 8.72 3.08 8.53 2.98 8.39 C2.98 8.39 2.88 8.25 2.725 8.145 C2.725 8.145 2.57 8.04 2.37 7.96 C2.37 7.96 2.17 7.88 1.97 7.8 C1.97 7.8 1.71 7.71 1.45 7.595 C1.45 7.595 1.19 7.48 0.985 7.315 C0.985 7.315 0.78 7.15 0.65 6.93 C0.65 6.93 0.52 6.71 0.52 6.4 C0.52 6.4 0.52 6.11 0.635 5.855 C0.635 5.855 0.75 5.6 0.965 5.415 C0.965 5.415 1.18 5.23 1.49 5.125 C1.49 5.125 1.8 5.02 2.19 5.02 C2.19 5.02 2.65 5.02 3.035 5.18 C3.035 5.18 3.42 5.34 3.7 5.57 L3.31 6.09 C3.31 6.09 3.06 5.9 2.79 5.78 C2.79 5.78 2.52 5.66 2.2 5.66 C2.2 5.66 1.74 5.66 1.525 5.87 C1.525 5.87 1.31 6.08 1.31 6.36 C1.31 6.36 1.31 6.53 1.4 6.655 C1.4 6.655 1.49 6.78 1.64 6.875 C1.64 6.875 1.79 6.97 1.985 7.045 C1.985 7.045 2.18 7.12 2.39 7.2 C2.39 7.2 2.65 7.3 2.915 7.41 C2.915 7.41 3.18 7.52 3.39 7.685 C3.39 7.685 3.6 7.85 3.735 8.09 C3.735 8.09 3.87 8.33 3.87 8.67 C3.87 8.67 3.87 8.97 3.755 9.23 C3.755 9.23 3.64 9.49 3.415 9.69 C3.415 9.69 3.19 9.89 2.855 10.005 C2.855 10.005 2.52 10.12 2.09 10.12 C2.09 10.12 1.57 10.12 1.1 9.93 C1.1 9.93 0.63 9.74 0.28 9.45 L0.69 8.9 Z"/>
  <path id="GlSourceSansPro-Regular77" d="M0.9 3.44 L1.88 3.44 L3.15 6.96 L3.63 8.3 L3.67 8.3 L4.13 6.96 L5.39 3.44 L6.37 3.44 L6.37 10 L5.58 10 L5.58 6.39 C5.58 6.39 5.58 5.95 5.615 5.42 C5.615 5.42 5.65 4.89 5.69 4.45 L5.65 4.45 L5.12 5.91 L3.86 9.34 L3.39 9.34 L2.12 5.91 L1.6 4.45 L1.56 4.45 C1.56 4.45 1.59 4.89 1.63 5.42 C1.63 5.42 1.67 5.95 1.67 6.39 L1.67 10 L0.9 10 L0.9 3.44 Z"/>
  <path id="GlSourceSansPro-Regular70" d="M0.9 3.44 L4.68 3.44 L4.68 4.14 L1.73 4.14 L1.73 6.36 L4.23 6.36 L4.23 7.06 L1.73 7.06 L1.73 10 L0.9 10 L0.9 3.44 Z"/>
  <path id="GlSourceSansPro-Regular246" d="M0.46 7.58 C0.46 7.58 0.46 6.97 0.645 6.495 C0.645 6.495 0.83 6.02 1.14 5.69 C1.14 5.69 1.45 5.36 1.855 5.19 C1.855 5.19 2.26 5.02 2.71 5.02 C2.71 5.02 3.16 5.02 3.565 5.19 C3.565 5.19 3.97 5.36 4.28 5.69 C4.28 5.69 4.59 6.02 4.775 6.495 C4.775 6.495 4.96 6.97 4.96 7.58 C4.96 7.58 4.96 8.18 4.775 8.655 C4.775 8.655 4.59 9.13 4.28 9.455 C4.28 9.455 3.97 9.78 3.565 9.95 C3.565 9.95 3.16 10.12 2.71 10.12 C2.71 10.12 2.26 10.12 1.855 9.95 C1.855 9.95 1.45 9.78 1.14 9.455 C1.14 9.455 0.83 9.13 0.645 8.655 C0.645 8.655 0.46 8.18 0.46 7.58 L0.46 7.58 Z M1.31 7.58 C1.31 7.58 1.31 8 1.41 8.34 C1.41 8.34 1.51 8.68 1.695 8.925 C1.695 8.925 1.88 9.17 2.14 9.305 C2.14 9.305 2.4 9.44 2.71 9.44 C2.71 9.44 3.02 9.44 3.28 9.305 C3.28 9.305 3.54 9.17 3.725 8.925 C3.725 8.925 3.91 8.68 4.01 8.34 C4.01 8.34 4.11 8 4.11 7.58 C4.11 7.58 4.11 7.16 4.01 6.815 C4.01 6.815 3.91 6.47 3.725 6.22 C3.725 6.22 3.54 5.97 3.28 5.835 C3.28 5.835 3.02 5.7 2.71 5.7 C2.71 5.7 2.4 5.7 2.14 5.835 C2.14 5.835 1.88 5.97 1.695 6.22 C1.695 6.22 1.51 6.47 1.41 6.815 C1.41 6.815 1.31 7.16 1.31 7.58 L1.31 7.58 Z M1.85 4.12 C1.85 4.12 1.63 4.12 1.495 3.98 C1.495 3.98 1.36 3.84 1.36 3.63 C1.36 3.63 1.36 3.42 1.495 3.28 C1.495 3.28 1.63 3.14 1.85 3.14 C1.85 3.14 2.06 3.14 2.2 3.28 C2.2 3.28 2.34 3.42 2.34 3.63 C2.34 3.63 2.34 3.84 2.2 3.98 C2.2 3.98 2.06 4.12 1.85 4.12 L1.85 4.12 Z M3.57 4.12 C3.57 4.12 3.36 4.12 3.22 3.98 C3.22 3.98 3.08 3.84 3.08 3.63 C3.08 3.63 3.08 3.42 3.22 3.28 C3.22 3.28 3.36 3.14 3.57 3.14 C3.57 3.14 3.79 3.14 3.925 3.28 C3.925 3.28 4.06 3.42 4.06 3.63 C4.06 3.63 4.06 3.84 3.925 3.98 C3.925 3.98 3.79 4.12 3.57 4.12 Z"/>
 </defs>
 <g id="Hintergrund">
  <path style="fill:#1eb296; fill-rule:evenodd;stroke:none;" d="M0 0 L21.6 0 L21.6 45.5 L0 45.5 L0 0 Z" transform="translate(109.472, 284.519)"/>
  <path style="fill:#1eb296; fill-rule:evenodd;stroke:none;" d="M0 47.7573 C79.2807 47.7573 83.111 0 83.111 0 L82.9449 47.9686 L0 48.6026 " transform="translate(26.8217, 283.75)"/>
  <g>
   <path style="stroke:#000000; stroke-width:2; stroke-linecap:butt; stroke-linejoin:miter; stroke-dasharray:none;" d="M 0 0 L 573.447 0" transform="translate(9.96574, 330.651)"/>
   <path style="fill:#000000; stroke:none;" d="M570.728 -4.01772 L581.654 -3.46945e-18 L570.728 4.01772 C572.474 1.64566 572.464 -1.59973 570.728 -4.01772 Z" transform="translate(9.96574, 330.651)"/>
  </g>
  <path style="fill:url(#Grad0); fill-rule:evenodd;stroke:none;" d="M440 0 L0 51.1 L440 51.1 L440 0 Z" transform="translate(571.137, 87.1113) rotate(-180)"/>
  <g transform="translate(109.874, 14.752)">
   <use style="fill:#000000;stroke:none;" xlink:href="#GlSourceSansPro-Regular50" transform="matrix(1.4 0 0 1.4 0 -3.742)"/>
   <use style="fill:#000000;stroke:none;" xlink:href="#GlSourceSansPro-Regular48" transform="matrix(1.4 0 0 1.4 6.958 -3.742)"/>
   <use style="fill:#000000;stroke:none;" xlink:href="#GlSourceSansPro-Regular49" transform="matrix(1.4 0 0 1.4 13.916 -3.742)"/>
   <use style="fill:#000000;stroke:none;" xlink:href="#GlSourceSansPro-Regular57" transform="matrix(1.4 0 0 1.4 20.874 -3.742)"/>
   <use style="fill:#000000;stroke:none;" xlink:href="#GlSourceSansPro-Regular40" transform="matrix(1.4 0 0 1.4 30.66 -3.742)"/>
   <use style="fill:#000000;stroke:none;" xlink:href="#GlSourceSansPro-Regular69" transform="matrix(1.4 0 0 1.4 34.902 -3.742)"/>
   <use style="fill:#000000;stroke:none;" xlink:href="#GlSourceSansPro-Regular105" transform="matrix(1.4 0 0 1.4 42.28 -3.742)"/>
   <use style="fill:#000000;stroke:none;" xlink:href="#GlSourceSansPro-Regular110" transform="matrix(1.4 0 0 1.4 45.724 -3.742)"/>
   <use style="fill:#000000;stroke:none;" xlink:href="#GlSourceSansPro-Regular122" transform="matrix(1.4 0 0 1.4 53.382 -3.742)"/>
   <use style="fill:#000000;stroke:none;" xlink:href="#GlSourceSansPro-Regular117" transform="matrix(1.4 0 0 1.4 59.192 -3.742)"/>
   <use style="fill:#000000;stroke:none;" xlink:href="#GlSourceSansPro-Regular103" transform="matrix(1.4 0 0 1.4 66.808 -3.742)"/>
   <use style="fill:#000000;stroke:none;" xlink:href="#GlSourceSansPro-Regular41" transform="matrix(1.4 0 0 1.4 74.06 -3.742)"/>
   <path style="fill:none; stroke:none;" d="M0 0 L120 0 L120 24.3669 L0 24.3669 L0 0 Z"/>
  </g>
  <g transform="translate(358.758, 15.5524)">
   <use style="fill:#000000;stroke:none;" xlink:href="#GlSourceSansPro-Regular50" transform="matrix(1.4 0 0 1.4 0 -4.9)"/>
   <use style="fill:#000000;stroke:none;" xlink:href="#GlSourceSansPro-Regular48" transform="matrix(1.4 0 0 1.4 6.958 -4.9)"/>
   <use style="fill:#000000;stroke:none;" xlink:href="#GlSourceSansPro-Regular51" transform="matrix(1.4 0 0 1.4 13.916 -4.9)"/>
   <use style="fill:#000000;stroke:none;" xlink:href="#GlSourceSansPro-Regular53" transform="matrix(1.4 0 0 1.4 20.874 -4.9)"/>
   <path style="fill:none; stroke:none;" d="M0 0 L55 0 L55 21.7665 L0 21.7665 L0 0 Z"/>
  </g>
  <g transform="translate(458.758, 26.5143)">
   <use style="fill:#000000;stroke:none;" xlink:href="#GlAbyssinicaSIL46" transform="matrix(1.4 0 0 1.4 0 -11.8467)"/>
   <use style="fill:#000000;stroke:none;" xlink:href="#GlAbyssinicaSIL46" transform="matrix(1.4 0 0 1.4 4.46387 -11.8467)"/>
   <use style="fill:#000000;stroke:none;" xlink:href="#GlAbyssinicaSIL46" transform="matrix(1.4 0 0 1.4 8.92773 -11.8467)"/>
   <path style="fill:none; stroke:none;" d="M0 0 L38.8839 0 L38.8839 9.60469 L0 9.60469 L0 0 Z"/>
  </g>
  <path style="fill:url(#Grad1); fill-rule:evenodd;stroke:none;" d="M0 0 L440 42.5 L0 85 L0 0 Z" transform="translate(130.753, 109.119)"/>
  <path style="fill:url(#Grad2); fill-rule:evenodd;stroke:none;" d="M0 0 L440 33.2162 L0 66.4324 L0 0 Z" transform="translate(130.753, 208.373)"/>
  <path style="fill:url(#Grad3); fill-rule:evenodd;stroke:none;" d="M0 49.6242 L420 5.68434e-14 L0 0 L0 49.6242 Z" transform="translate(550.937, 90.5971) rotate(-180)"/>
  <path style="fill:#1eb296; fill-rule:evenodd;stroke:none;" d="M0 0.908966 C108.375 0.908966 113.611 52.2655 113.611 52.2655 L113.384 0.681724 L0 0 " transform="translate(-3.57834, 35.0871)"/>
  <g transform="translate(40.6128, 222.343)">
   <use style="fill:#000000;stroke:none;" xlink:href="#GlSourceSansPro-Regular75" transform="matrix(1.4 0 0 1.4 0 -3.854)"/>
   <use style="fill:#000000;stroke:none;" xlink:href="#GlSourceSansPro-Regular102" transform="matrix(1.4 0 0 1.4 8.106 -3.854)"/>
   <use style="fill:#000000;stroke:none;" xlink:href="#GlSourceSansPro-Regular87" transform="matrix(1.4 0 0 1.4 12.838 -3.854)"/>
   <use style="fill:#000000;stroke:none;" xlink:href="#GlSourceSansPro-Regular45" transform="matrix(1.4 0 0 1.4 23.786 -3.854)"/>
   <use style="fill:#000000;stroke:none;" xlink:href="#GlSourceSansPro-Regular75" transform="matrix(1.4 0 0 1.4 28.14 -3.854)"/>
   <use style="fill:#000000;stroke:none;" xlink:href="#GlSourceSansPro-Regular114" transform="matrix(1.4 0 0 1.4 36.246 -3.854)"/>
   <use style="fill:#000000;stroke:none;" xlink:href="#GlSourceSansPro-Regular101" transform="matrix(1.4 0 0 1.4 40.964 -3.854)"/>
   <use style="fill:#000000;stroke:none;" xlink:href="#GlSourceSansPro-Regular100" transform="matrix(1.4 0 0 1.4 47.908 -3.854)"/>
   <use style="fill:#000000;stroke:none;" xlink:href="#GlSourceSansPro-Regular105" transform="matrix(1.4 0 0 1.4 55.678 -3.854)"/>
   <use style="fill:#000000;stroke:none;" xlink:href="#GlSourceSansPro-Regular116" transform="matrix(1.4 0 0 1.4 59.122 -3.854)"/>
   <use style="fill:#000000;stroke:none;" xlink:href="#GlSourceSansPro-Regular97" transform="matrix(1.4 0 0 1.4 0 16.146)"/>
   <use style="fill:#000000;stroke:none;" xlink:href="#GlSourceSansPro-Regular117" transform="matrix(1.4 0 0 1.4 7.168 16.146)"/>
   <use style="fill:#000000;stroke:none;" xlink:href="#GlSourceSansPro-Regular102" transform="matrix(1.4 0 0 1.4 14.784 16.146)"/>
   <use style="fill:#000000;stroke:none;" xlink:href="#GlSourceSansPro-Regular110" transform="matrix(1.4 0 0 1.4 18.872 16.146)"/>
   <use style="fill:#000000;stroke:none;" xlink:href="#GlSourceSansPro-Regular101" transform="matrix(1.4 0 0 1.4 26.53 16.146)"/>
   <use style="fill:#000000;stroke:none;" xlink:href="#GlSourceSansPro-Regular104" transform="matrix(1.4 0 0 1.4 33.474 16.146)"/>
   <use style="fill:#000000;stroke:none;" xlink:href="#GlSourceSansPro-Regular109" transform="matrix(1.4 0 0 1.4 41.09 16.146)"/>
   <use style="fill:#000000;stroke:none;" xlink:href="#GlSourceSansPro-Regular101" transform="matrix(1.4 0 0 1.4 52.696 16.146)"/>
   <use style="fill:#000000;stroke:none;" xlink:href="#GlSourceSansPro-Regular110" transform="matrix(1.4 0 0 1.4 59.64 16.146)"/>
   <path style="fill:none; stroke:none;" d="M0 0 L124 0 L124 52.7764 L0 52.7764 L0 0 Z"/>
  </g>
  <g transform="translate(40.6128, 127.404)">
   <use style="fill:#000000;stroke:none;" xlink:href="#GlSourceSansPro-Regular66" transform="matrix(1.4 0 0 1.4 0 -3.854)"/>
   <use style="fill:#000000;stroke:none;" xlink:href="#GlSourceSansPro-Regular97" transform="matrix(1.4 0 0 1.4 8.232 -3.854)"/>
   <use style="fill:#000000;stroke:none;" xlink:href="#GlSourceSansPro-Regular110" transform="matrix(1.4 0 0 1.4 15.4 -3.854)"/>
   <use style="fill:#000000;stroke:none;" xlink:href="#GlSourceSansPro-Regular107" transform="matrix(1.4 0 0 1.4 23.058 -3.854)"/>
   <use style="fill:#000000;stroke:none;" xlink:href="#GlSourceSansPro-Regular107" transform="matrix(1.4 0 0 1.4 29.988 -3.854)"/>
   <use style="fill:#000000;stroke:none;" xlink:href="#GlSourceSansPro-Regular114" transform="matrix(1.4 0 0 1.4 36.918 -3.854)"/>
   <use style="fill:#000000;stroke:none;" xlink:href="#GlSourceSansPro-Regular101" transform="matrix(1.4 0 0 1.4 41.636 -3.854)"/>
   <use style="fill:#000000;stroke:none;" xlink:href="#GlSourceSansPro-Regular100" transform="matrix(1.4 0 0 1.4 48.58 -3.854)"/>
   <use style="fill:#000000;stroke:none;" xlink:href="#GlSourceSansPro-Regular105" transform="matrix(1.4 0 0 1.4 56.35 -3.854)"/>
   <use style="fill:#000000;stroke:none;" xlink:href="#GlSourceSansPro-Regular116" transform="matrix(1.4 0 0 1.4 59.794 -3.854)"/>
   <use style="fill:#000000;stroke:none;" xlink:href="#GlSourceSansPro-Regular97" transform="matrix(1.4 0 0 1.4 0 16.146)"/>
   <use style="fill:#000000;stroke:none;" xlink:href="#GlSourceSansPro-Regular117" transform="matrix(1.4 0 0 1.4 7.168 16.146)"/>
   <use style="fill:#000000;stroke:none;" xlink:href="#GlSourceSansPro-Regular102" transform="matrix(1.4 0 0 1.4 14.784 16.146)"/>
   <use style="fill:#000000;stroke:none;" xlink:href="#GlSourceSansPro-Regular110" transform="matrix(1.4 0 0 1.4 18.872 16.146)"/>
   <use style="fill:#000000;stroke:none;" xlink:href="#GlSourceSansPro-Regular101" transform="matrix(1.4 0 0 1.4 26.53 16.146)"/>
   <use style="fill:#000000;stroke:none;" xlink:href="#GlSourceSansPro-Regular104" transform="matrix(1.4 0 0 1.4 33.474 16.146)"/>
   <use style="fill:#000000;stroke:none;" xlink:href="#GlSourceSansPro-Regular109" transform="matrix(1.4 0 0 1.4 41.09 16.146)"/>
   <use style="fill:#000000;stroke:none;" xlink:href="#GlSourceSansPro-Regular101" transform="matrix(1.4 0 0 1.4 52.696 16.146)"/>
   <use style="fill:#000000;stroke:none;" xlink:href="#GlSourceSansPro-Regular110" transform="matrix(1.4 0 0 1.4 59.64 16.146)"/>
   <path style="fill:none; stroke:none;" d="M0 0 L119 0 L119 57.1147 L0 57.1147 L0 0 Z"/>
  </g>
  <g transform="translate(336.593, 71.9659)">
   <use style="fill:#000000;stroke:none;" xlink:href="#GlSourceSansPro-Regular110" transform="matrix(1.4 0 0 1.4 0 -4.022)"/>
   <use style="fill:#000000;stroke:none;" xlink:href="#GlSourceSansPro-Regular101" transform="matrix(1.4 0 0 1.4 7.658 -4.022)"/>
   <use style="fill:#000000;stroke:none;" xlink:href="#GlSourceSansPro-Regular117" transform="matrix(1.4 0 0 1.4 14.602 -4.022)"/>
   <use style="fill:#000000;stroke:none;" xlink:href="#GlSourceSansPro-Regular101" transform="matrix(1.4 0 0 1.4 22.218 -4.022)"/>
   <use style="fill:#000000;stroke:none;" xlink:href="#GlSourceSansPro-Regular68" transform="matrix(1.4 0 0 1.4 31.99 -4.022)"/>
   <use style="fill:#000000;stroke:none;" xlink:href="#GlSourceSansPro-Regular75" transform="matrix(1.4 0 0 1.4 40.6 -4.022)"/>
   <use style="fill:#000000;stroke:none;" xlink:href="#GlSourceSansPro-Regular101" transform="matrix(1.4 0 0 1.4 51.534 -4.022)"/>
   <use style="fill:#000000;stroke:none;" xlink:href="#GlSourceSansPro-Regular105" transform="matrix(1.4 0 0 1.4 58.478 -4.022)"/>
   <use style="fill:#000000;stroke:none;" xlink:href="#GlSourceSansPro-Regular110" transform="matrix(1.4 0 0 1.4 61.922 -4.022)"/>
   <use style="fill:#000000;stroke:none;" xlink:href="#GlSourceSansPro-Regular119" transform="matrix(1.4 0 0 1.4 69.58 -4.022)"/>
   <use style="fill:#000000;stroke:none;" xlink:href="#GlSourceSansPro-Regular101" transform="matrix(1.4 0 0 1.4 79.576 -4.022)"/>
   <use style="fill:#000000;stroke:none;" xlink:href="#GlSourceSansPro-Regular114" transform="matrix(1.4 0 0 1.4 86.52 -4.022)"/>
   <use style="fill:#000000;stroke:none;" xlink:href="#GlSourceSansPro-Regular98" transform="matrix(1.4 0 0 1.4 91.378 -4.022)"/>
   <use style="fill:#000000;stroke:none;" xlink:href="#GlSourceSansPro-Regular101" transform="matrix(1.4 0 0 1.4 99.148 -4.022)"/>
   <use style="fill:#000000;stroke:none;" xlink:href="#GlSourceSansPro-Regular110" transform="matrix(1.4 0 0 1.4 106.092 -4.022)"/>
   <path style="fill:none; stroke:none;" d="M0 0 L125.157 0 L125.157 21.253 L0 21.253 L0 0 Z"/>
  </g>
  <g transform="translate(156.575, 47.5511)">
   <use style="fill:#000000;stroke:none;" xlink:href="#GlSourceSansPro-Regular68" transform="matrix(1.4 0 0 1.4 0 -4.022)"/>
   <use style="fill:#000000;stroke:none;" xlink:href="#GlSourceSansPro-Regular75" transform="matrix(1.4 0 0 1.4 8.61 -4.022)"/>
   <use style="fill:#000000;stroke:none;" xlink:href="#GlSourceSansPro-Regular114" transform="matrix(1.4 0 0 1.4 19.544 -4.022)"/>
   <use style="fill:#000000;stroke:none;" xlink:href="#GlSourceSansPro-Regular252" transform="matrix(1.4 0 0 1.4 24.402 -4.022)"/>
   <use style="fill:#000000;stroke:none;" xlink:href="#GlSourceSansPro-Regular99" transform="matrix(1.4 0 0 1.4 32.018 -4.022)"/>
   <use style="fill:#000000;stroke:none;" xlink:href="#GlSourceSansPro-Regular107" transform="matrix(1.4 0 0 1.4 38.402 -4.022)"/>
   <use style="fill:#000000;stroke:none;" xlink:href="#GlSourceSansPro-Regular122" transform="matrix(1.4 0 0 1.4 45.234 -4.022)"/>
   <use style="fill:#000000;stroke:none;" xlink:href="#GlSourceSansPro-Regular97" transform="matrix(1.4 0 0 1.4 50.862 -4.022)"/>
   <use style="fill:#000000;stroke:none;" xlink:href="#GlSourceSansPro-Regular104" transform="matrix(1.4 0 0 1.4 58.03 -4.022)"/>
   <use style="fill:#000000;stroke:none;" xlink:href="#GlSourceSansPro-Regular108" transform="matrix(1.4 0 0 1.4 65.646 -4.022)"/>
   <use style="fill:#000000;stroke:none;" xlink:href="#GlSourceSansPro-Regular101" transform="matrix(1.4 0 0 1.4 69.216 -4.022)"/>
   <use style="fill:#000000;stroke:none;" xlink:href="#GlSourceSansPro-Regular110" transform="matrix(1.4 0 0 1.4 76.16 -4.022)"/>
   <path style="fill:none; stroke:none;" d="M0 0 L141.829 0 L141.829 24.6679 L0 24.6679 L0 0 Z"/>
  </g>
  <g transform="translate(542.641, 15.5524)">
   <use style="fill:#000000;stroke:none;" xlink:href="#GlSourceSansPro-Regular50" transform="matrix(1.4 0 0 1.4 0 -4.9)"/>
   <use style="fill:#000000;stroke:none;" xlink:href="#GlSourceSansPro-Regular48" transform="matrix(1.4 0 0 1.4 6.958 -4.9)"/>
   <use style="fill:#000000;stroke:none;" xlink:href="#GlSourceSansPro-Regular53" transform="matrix(1.4 0 0 1.4 13.916 -4.9)"/>
   <use style="fill:#000000;stroke:none;" xlink:href="#GlSourceSansPro-Regular48" transform="matrix(1.4 0 0 1.4 20.874 -4.9)"/>
   <path style="fill:none; stroke:none;" d="M0 0 L55 0 L55 23.5665 L0 23.5665 L0 0 Z"/>
  </g>
  <g transform="translate(568.613, 312.091)">
   <use style="fill:#000000;stroke:none;" xlink:href="#GlSourceSansPro-Regular90" transform="matrix(1.4 0 0 1.4 0 -4.302)"/>
   <use style="fill:#000000;stroke:none;" xlink:href="#GlSourceSansPro-Regular101" transform="matrix(1.4 0 0 1.4 7.252 -4.302)"/>
   <use style="fill:#000000;stroke:none;" xlink:href="#GlSourceSansPro-Regular105" transform="matrix(1.4 0 0 1.4 14.196 -4.302)"/>
   <use style="fill:#000000;stroke:none;" xlink:href="#GlSourceSansPro-Regular116" transform="matrix(1.4 0 0 1.4 17.64 -4.302)"/>
   <path style="fill:none; stroke:none;" d="M0 0 L28.5918 0 L28.5918 22.0277 L0 22.0277 L0 0 Z"/>
  </g>
  <path style="fill:url(#Grad4); fill-rule:evenodd;stroke:none;" d="M0 0 L108 50 L0 50 L0 0 Z" transform="translate(550.005, 40.6189)"/>
  <path style="fill:#1eb296; fill-rule:evenodd;stroke:none;" d="M0 0 L21.6 0 L21.6 85 L0 85 L0 0 Z" transform="translate(108.705, 109.119)"/>
  <path style="fill:#1eb296; fill-rule:evenodd;stroke:none;" d="M0 0 L21.6 0 L21.6 66.7 L0 66.7 L0 0 Z" transform="translate(108.905, 208.319)"/>
  <path style="fill:#1eb296; fill-rule:evenodd;stroke:none;" d="M0 0 L21.6 0 L21.6 51.1 L0 51.1 L0 0 Z" transform="translate(109.405, 35.8871)"/>
  <g transform="translate(-0.387193, 47.3189)">
   <use style="fill:#000000;stroke:none;" xlink:href="#GlSourceSansPro-Regular68" transform="matrix(1.4 0 0 1.4 0 -4.022)"/>
   <use style="fill:#000000;stroke:none;" xlink:href="#GlSourceSansPro-Regular105" transform="matrix(1.4 0 0 1.4 8.61 -4.022)"/>
   <use style="fill:#000000;stroke:none;" xlink:href="#GlSourceSansPro-Regular114" transform="matrix(1.4 0 0 1.4 12.054 -4.022)"/>
   <use style="fill:#000000;stroke:none;" xlink:href="#GlSourceSansPro-Regular101" transform="matrix(1.4 0 0 1.4 16.772 -4.022)"/>
   <use style="fill:#000000;stroke:none;" xlink:href="#GlSourceSansPro-Regular107" transform="matrix(1.4 0 0 1.4 23.716 -4.022)"/>
   <use style="fill:#000000;stroke:none;" xlink:href="#GlSourceSansPro-Regular116" transform="matrix(1.4 0 0 1.4 30.45 -4.022)"/>
   <use style="fill:#000000;stroke:none;" xlink:href="#GlSourceSansPro-Regular107" transform="matrix(1.4 0 0 1.4 35.182 -4.022)"/>
   <use style="fill:#000000;stroke:none;" xlink:href="#GlSourceSansPro-Regular114" transform="matrix(1.4 0 0 1.4 42.112 -4.022)"/>
   <use style="fill:#000000;stroke:none;" xlink:href="#GlSourceSansPro-Regular101" transform="matrix(1.4 0 0 1.4 46.83 -4.022)"/>
   <use style="fill:#000000;stroke:none;" xlink:href="#GlSourceSansPro-Regular100" transform="matrix(1.4 0 0 1.4 53.774 -4.022)"/>
   <use style="fill:#000000;stroke:none;" xlink:href="#GlSourceSansPro-Regular105" transform="matrix(1.4 0 0 1.4 61.544 -4.022)"/>
   <use style="fill:#000000;stroke:none;" xlink:href="#GlSourceSansPro-Regular116" transform="matrix(1.4 0 0 1.4 64.988 -4.022)"/>
   <use style="fill:#000000;stroke:none;" xlink:href="#GlSourceSansPro-Regular101" transform="matrix(1.4 0 0 1.4 69.58 -4.022)"/>
   <use style="fill:#000000;stroke:none;" xlink:href="#GlSourceSansPro-Regular115" transform="matrix(1.4 0 0 1.4 0 16.978)"/>
   <use style="fill:#000000;stroke:none;" xlink:href="#GlSourceSansPro-Regular97" transform="matrix(1.4 0 0 1.4 5.866 16.978)"/>
   <use style="fill:#000000;stroke:none;" xlink:href="#GlSourceSansPro-Regular109" transform="matrix(1.4 0 0 1.4 13.034 16.978)"/>
   <use style="fill:#000000;stroke:none;" xlink:href="#GlSourceSansPro-Regular109" transform="matrix(1.4 0 0 1.4 24.64 16.978)"/>
   <use style="fill:#000000;stroke:none;" xlink:href="#GlSourceSansPro-Regular101" transform="matrix(1.4 0 0 1.4 36.246 16.978)"/>
   <use style="fill:#000000;stroke:none;" xlink:href="#GlSourceSansPro-Regular108" transform="matrix(1.4 0 0 1.4 43.19 16.978)"/>
   <use style="fill:#000000;stroke:none;" xlink:href="#GlSourceSansPro-Regular110" transform="matrix(1.4 0 0 1.4 46.76 16.978)"/>
   <path style="fill:none; stroke:none;" d="M0 0 L115 0 L115 49.3428 L0 49.3428 L0 0 Z"/>
  </g>
  <g transform="translate(274.874, 25.5143)">
   <use style="fill:#000000;stroke:none;" xlink:href="#GlAbyssinicaSIL46" transform="matrix(1.4 0 0 1.4 0 -11.8467)"/>
   <use style="fill:#000000;stroke:none;" xlink:href="#GlAbyssinicaSIL46" transform="matrix(1.4 0 0 1.4 4.46387 -11.8467)"/>
   <use style="fill:#000000;stroke:none;" xlink:href="#GlAbyssinicaSIL46" transform="matrix(1.4 0 0 1.4 8.92773 -11.8467)"/>
   <path style="fill:none; stroke:none;" d="M0 0 L38.8839 0 L38.8839 9.60469 L0 9.60469 L0 0 Z"/>
  </g>
  <path style="fill:#b80000; fill-rule:evenodd; fill-opacity:0.6;stroke:none;" d="M0 0 L422.8 0 L422.8 30.32 L0 30.32 L0 0 Z" transform="translate(130.605, 337)"/>
  <path style="fill:#b80000; fill-rule:evenodd; fill-opacity:0.6;stroke:none;" d="M0 0 L10.6 0 L10.6 30.32 L0 30.32 L0 0 Z" transform="translate(558.205, 337)"/>
  <path style="fill:#b80000; fill-rule:evenodd; fill-opacity:0.6;stroke:none;" d="M0 0 L10.6 0 L10.6 30.32 L0 30.32 L0 0 Z" transform="translate(572.805, 337)"/>
  <path style="fill:#b80000; fill-rule:evenodd; fill-opacity:0.6;stroke:none;" d="M0 0 L10.6 0 L10.6 30.32 L0 30.32 L0 0 Z" transform="translate(587.405, 337)"/>
  <g transform="translate(133.613, 344.191)">
   <use style="fill:#000000;stroke:none;" xlink:href="#GlSourceSansPro-Regular77" transform="matrix(1.4 0 0 1.4 0 -4.022)"/>
   <use style="fill:#000000;stroke:none;" xlink:href="#GlSourceSansPro-Regular105" transform="matrix(1.4 0 0 1.4 10.178 -4.022)"/>
   <use style="fill:#000000;stroke:none;" xlink:href="#GlSourceSansPro-Regular101" transform="matrix(1.4 0 0 1.4 13.622 -4.022)"/>
   <use style="fill:#000000;stroke:none;" xlink:href="#GlSourceSansPro-Regular116" transform="matrix(1.4 0 0 1.4 20.37 -4.022)"/>
   <use style="fill:#000000;stroke:none;" xlink:href="#GlSourceSansPro-Regular101" transform="matrix(1.4 0 0 1.4 24.962 -4.022)"/>
   <use style="fill:#000000;stroke:none;" xlink:href="#GlSourceSansPro-Regular105" transform="matrix(1.4 0 0 1.4 31.906 -4.022)"/>
   <use style="fill:#000000;stroke:none;" xlink:href="#GlSourceSansPro-Regular110" transform="matrix(1.4 0 0 1.4 35.35 -4.022)"/>
   <use style="fill:#000000;stroke:none;" xlink:href="#GlSourceSansPro-Regular110" transform="matrix(1.4 0 0 1.4 43.008 -4.022)"/>
   <use style="fill:#000000;stroke:none;" xlink:href="#GlSourceSansPro-Regular97" transform="matrix(1.4 0 0 1.4 50.666 -4.022)"/>
   <use style="fill:#000000;stroke:none;" xlink:href="#GlSourceSansPro-Regular104" transform="matrix(1.4 0 0 1.4 57.834 -4.022)"/>
   <use style="fill:#000000;stroke:none;" xlink:href="#GlSourceSansPro-Regular109" transform="matrix(1.4 0 0 1.4 65.45 -4.022)"/>
   <use style="fill:#000000;stroke:none;" xlink:href="#GlSourceSansPro-Regular101" transform="matrix(1.4 0 0 1.4 77.056 -4.022)"/>
   <use style="fill:#000000;stroke:none;" xlink:href="#GlSourceSansPro-Regular110" transform="matrix(1.4 0 0 1.4 84 -4.022)"/>
   <path style="fill:none; stroke:none;" d="M0 0 L135.392 0 L135.392 17.9277 L0 17.9277 L0 0 Z"/>
  </g>
  <g transform="translate(20.6128, 298.391)">
   <use style="fill:#000000;stroke:none;" xlink:href="#GlSourceSansPro-Regular70" transform="matrix(1.4 0 0 1.4 0 -4.022)"/>
   <use style="fill:#000000;stroke:none;" xlink:href="#GlSourceSansPro-Regular246" transform="matrix(1.4 0 0 1.4 6.72 -4.022)"/>
   <use style="fill:#000000;stroke:none;" xlink:href="#GlSourceSansPro-Regular114" transform="matrix(1.4 0 0 1.4 14.308 -4.022)"/>
   <use style="fill:#000000;stroke:none;" xlink:href="#GlSourceSansPro-Regular100" transform="matrix(1.4 0 0 1.4 19.026 -4.022)"/>
   <use style="fill:#000000;stroke:none;" xlink:href="#GlSourceSansPro-Regular101" transform="matrix(1.4 0 0 1.4 26.796 -4.022)"/>
   <use style="fill:#000000;stroke:none;" xlink:href="#GlSourceSansPro-Regular114" transform="matrix(1.4 0 0 1.4 33.74 -4.022)"/>
   <use style="fill:#000000;stroke:none;" xlink:href="#GlSourceSansPro-Regular117" transform="matrix(1.4 0 0 1.4 38.598 -4.022)"/>
   <use style="fill:#000000;stroke:none;" xlink:href="#GlSourceSansPro-Regular110" transform="matrix(1.4 0 0 1.4 46.214 -4.022)"/>
   <use style="fill:#000000;stroke:none;" xlink:href="#GlSourceSansPro-Regular103" transform="matrix(1.4 0 0 1.4 53.872 -4.022)"/>
   <path style="fill:none; stroke:none;" d="M0 0 L91.5918 0 L91.5918 23.0277 L0 23.0277 L0 0 Z"/>
  </g>
  <g transform="translate(200.493, 192.566)">
   <use style="fill:#000000;stroke:none;" xlink:href="#GlSourceSansPro-Regular75" transform="matrix(1.4 0 0 1.4 0 -4.022)"/>
   <use style="fill:#000000;stroke:none;" xlink:href="#GlSourceSansPro-Regular114" transform="matrix(1.4 0 0 1.4 8.106 -4.022)"/>
   <use style="fill:#000000;stroke:none;" xlink:href="#GlSourceSansPro-Regular101" transform="matrix(1.4 0 0 1.4 12.824 -4.022)"/>
   <use style="fill:#000000;stroke:none;" xlink:href="#GlSourceSansPro-Regular100" transform="matrix(1.4 0 0 1.4 19.768 -4.022)"/>
   <use style="fill:#000000;stroke:none;" xlink:href="#GlSourceSansPro-Regular105" transform="matrix(1.4 0 0 1.4 27.538 -4.022)"/>
   <use style="fill:#000000;stroke:none;" xlink:href="#GlSourceSansPro-Regular116" transform="matrix(1.4 0 0 1.4 30.982 -4.022)"/>
   <use style="fill:#000000;stroke:none;" xlink:href="#GlSourceSansPro-Regular101" transform="matrix(1.4 0 0 1.4 35.574 -4.022)"/>
   <use style="fill:#000000;stroke:none;" xlink:href="#GlSourceSansPro-Regular116" transform="matrix(1.4 0 0 1.4 45.346 -4.022)"/>
   <use style="fill:#000000;stroke:none;" xlink:href="#GlSourceSansPro-Regular105" transform="matrix(1.4 0 0 1.4 50.078 -4.022)"/>
   <use style="fill:#000000;stroke:none;" xlink:href="#GlSourceSansPro-Regular108" transform="matrix(1.4 0 0 1.4 53.522 -4.022)"/>
   <use style="fill:#000000;stroke:none;" xlink:href="#GlSourceSansPro-Regular103" transform="matrix(1.4 0 0 1.4 57.092 -4.022)"/>
   <use style="fill:#000000;stroke:none;" xlink:href="#GlSourceSansPro-Regular101" transform="matrix(1.4 0 0 1.4 63.952 -4.022)"/>
   <use style="fill:#000000;stroke:none;" xlink:href="#GlSourceSansPro-Regular110" transform="matrix(1.4 0 0 1.4 70.896 -4.022)"/>
   <path style="fill:none; stroke:none;" d="M0 0 L127.812 0 L127.812 26.653 L0 26.653 L0 0 Z"/>
  </g>
  <path style="stroke:#000000; stroke-width:1; stroke-linecap:butt; stroke-linejoin:miter; stroke-dasharray:none;" d="M 0 0 L 305.555 0" transform="translate(131.053, 336.919) rotate(270)"/>
 </g>
</svg>
